<?xml version="1.0" encoding="UTF-8" standalone="no"?>
<!-- Created with Inkscape (http://www.inkscape.org/) -->

<svg
   xmlns:dc="http://purl.org/dc/elements/1.1/"
   xmlns:cc="http://creativecommons.org/ns#"
   xmlns:rdf="http://www.w3.org/1999/02/22-rdf-syntax-ns#"
   xmlns:svg="http://www.w3.org/2000/svg"
   xmlns="http://www.w3.org/2000/svg"
   xmlns:xlink="http://www.w3.org/1999/xlink"
   xmlns:sodipodi="http://sodipodi.sourceforge.net/DTD/sodipodi-0.dtd"
   xmlns:inkscape="http://www.inkscape.org/namespaces/inkscape"
   width="49"
   height="57"
   viewBox="0 0 12.964583 15.08125"
   version="1.1"
   id="svg8"
   inkscape:version="0.92.3 (2405546, 2018-03-11)"
   sodipodi:docname="CONTACT_FINAL.svg">
  <defs
     id="defs2">
    <linearGradient
       inkscape:collect="always"
       id="linearGradient2045">
      <stop
         style="stop-color:#e6e6e6;stop-opacity:1;"
         offset="0"
         id="stop2041" />
      <stop
         style="stop-color:#e6e6e6;stop-opacity:0;"
         offset="1"
         id="stop2043" />
    </linearGradient>
    <linearGradient
       inkscape:collect="always"
       xlink:href="#linearGradient2045"
       id="linearGradient2047"
       x1="74.133888"
       y1="125.01206"
       x2="74.133888"
       y2="126.7159"
       gradientUnits="userSpaceOnUse"
       gradientTransform="matrix(0.42105291,0,0,0.42105291,-25.06697,242.88301)" />
  </defs>
  <sodipodi:namedview
     id="base"
     pagecolor="#ffffff"
     bordercolor="#666666"
     borderopacity="1.0"
     inkscape:pageopacity="0.0"
     inkscape:pageshadow="2"
     inkscape:zoom="5.6"
     inkscape:cx="58.398174"
     inkscape:cy="23.336895"
     inkscape:document-units="px"
     inkscape:current-layer="layer1"
     showgrid="false"
     inkscape:window-width="1366"
     inkscape:window-height="745"
     inkscape:window-x="-8"
     inkscape:window-y="-8"
     inkscape:window-maximized="1"
     showborder="false"
     units="px" />
  <metadata
     id="metadata5">
    <rdf:RDF>
      <cc:Work
         rdf:about="">
        <dc:format>image/svg+xml</dc:format>
        <dc:type
           rdf:resource="http://purl.org/dc/dcmitype/StillImage" />
        <dc:title />
      </cc:Work>
    </rdf:RDF>
  </metadata>
  <g
     inkscape:label="Layer 1"
     inkscape:groupmode="layer"
     id="layer1"
     transform="translate(0,-281.91873)">
    <path
       style="opacity:0.38000039;fill:#000000;fill-opacity:1;stroke-width:0.11140357"
       d="m -13.686196,282.1151 c -0.604847,0 -1.091845,0.487 -1.091845,1.09186 v 10.70735 c 0,0.60485 0.486998,1.09185 1.091845,1.09185 h 10.7073817 c 0.6048487,0 1.0918454,-0.487 1.0918454,-1.09185 v -10.70735 c 0,-0.60486 -0.4869967,-1.09186 -1.0918454,-1.09186 z m -0.0046,0.29969 h 10.6939487 c 0.4322447,0 0.7802567,0.348 0.7802567,0.78025 v 10.69388 c 0,0.43225 -0.348012,0.78025 -0.7802567,0.78025 H -13.690742 c -0.432246,0 -0.780262,-0.348 -0.780262,-0.78025 v -10.69388 c 0,-0.43225 0.348016,-0.78025 0.780262,-0.78025 z"
       id="rect12"
       inkscape:connector-curvature="0" />
    <path
       style="opacity:0.38;fill:#000000;fill-opacity:1;stroke-width:0.03436521"
       d="m 2.1698566,295.43845 c -0.4797697,0 -0.8660593,0.0584 -0.8660593,0.13085 v 1.28449 c 0,0.0727 0.3862896,0.13085 0.8660593,0.13085 h 8.4932164 c 0.47977,0 0.866066,-0.0584 0.866066,-0.13085 v -1.28449 c 0,-0.0727 -0.386296,-0.13085 -0.866066,-0.13085 z m -0.00357,0.036 h 8.4825154 c 0.342866,0 0.618911,0.0419 0.618911,0.0935 v 1.28287 c 0,0.0519 -0.276048,0.0935 -0.618911,0.0935 H 2.1662655 c -0.3428624,0 -0.6189111,-0.0419 -0.6189111,-0.0935 v -1.28287 c 0,-0.052 0.2760484,-0.0935 0.6189111,-0.0935 z"
       id="rect12-9"
       inkscape:connector-curvature="0" />
    <rect
       style="opacity:0.38000039;fill:#e6e6e6;fill-opacity:1;stroke-width:0.1576042"
       id="rect32"
       width="12.305833"
       height="12.235499"
       x="0.31645259"
       y="282.42401"
       rx="0.7393977"
       ry="1.090397" />
    <rect
       style="opacity:0.6;fill:url(#linearGradient2047);fill-opacity:1;stroke-width:0.14645708"
       id="rect2039"
       width="9.7412319"
       height="1.4273336"
       x="1.5409904"
       y="295.49344"
       rx="0.29810709"
       ry="0.17670295" />
    <text
       xml:space="preserve"
       style="font-style:normal;font-weight:normal;font-size:1.33977437px;line-height:1.25;font-family:sans-serif;letter-spacing:0px;word-spacing:0px;fill:#ffffff;fill-opacity:1;stroke:none;stroke-width:0.25120771;"
       x="3.4993112"
       y="282.48279"
       id="text2088"
       transform="scale(0.95221799,1.0501797)"><tspan
         sodipodi:role="line"
         id="tspan2086"
         x="3.4993112"
         y="282.48279"
         style="stroke-width:0.25120771;fill:#ffffff;">CONTACT</tspan></text>
    <path
       style="opacity:0.88999999;fill:#ececec;stroke-width:0.02751336"
       d="m 4.0108499,292.31 v -0.66036 H 2.7729345 1.5346688 v -1.26118 c 0,-1.16496 0.00357,-1.2774 0.052887,-1.47322 0.1516093,-0.59354 0.5295771,-1.04925 1.0877137,-1.31196 0.7495884,-0.35286 1.6387998,-0.20062 2.2378362,0.38262 l 0.1375059,0.13258 0.1551364,-0.092 c 0.4047644,-0.23835 0.7827309,-0.33812 1.2798712,-0.33812 0.5006666,0 0.8846305,0.10228 1.2805787,0.34059 l 0.158662,0.0951 0.06699,-0.0811 c 0.105775,-0.12515 0.3656283,-0.31557 0.5747099,-0.42021 0.2538614,-0.1266 0.4654121,-0.18087 0.7813287,-0.20062 0.8913355,-0.0554 1.6818225,0.47447 1.9994995,1.3402 l 0.07405,0.20521 v 1.34125 1.34126 H 10.182107 8.9427709 v 0.66035 0.66031 H 6.466583 3.9904019 Z m 2.0354527,-5.11409 c -0.5175895,-0.16536 -0.9047235,-0.55955 -1.0559812,-1.07453 -0.059944,-0.19745 -0.059944,-0.63161 0,-0.82917 0.1516093,-0.5221 0.5602523,-0.9288 1.0824249,-1.08225 0.2397562,-0.0708 0.6480451,-0.0592 0.9001415,0.0247 0.4809246,0.16147 0.8243371,0.50495 0.9858191,0.98581 0.09872,0.29264 0.09872,0.67869 0,0.97126 -0.162187,0.48085 -0.5048945,0.82441 -0.9858191,0.98582 -0.2609109,0.0871 -0.6843617,0.0951 -0.9265852,0.0176 z M 3.1861606,287.0383 C 2.9922414,286.9865 2.822296,286.88563 2.6467104,286.71992 2.3822747,286.471 2.2620437,286.14934 2.2842572,285.75846 c 0.035258,-0.39524 0.2150742,-0.73495 0.5331029,-0.94688 0.4178092,-0.27714 0.9787672,-0.27714 1.3965764,0 0.528167,0.35046 0.6942337,1.06743 0.3814936,1.64517 -0.081089,0.15232 -0.2961694,0.36408 -0.4742224,0.46777 -0.2573853,0.15021 -0.6300644,0.19569 -0.9350471,0.11392 z m 5.9452395,5.7e-4 c -0.3455332,-0.0934 -0.6265433,-0.32791 -0.7933149,-0.66529 -0.08815,-0.17841 -0.1022463,-0.23517 -0.1128193,-0.45145 -0.03526,-0.5531 0.2186006,-0.97411 0.7104567,-1.21453 0.1727672,-0.0843 0.1903952,-0.0878 0.5228841,-0.0878 0.3314309,0 0.3525849,0.003 0.522533,0.0878 0.4922033,0.24116 0.7404213,0.66697 0.7090413,1.21637 0,0.1992 -0.03526,0.28136 -0.09872,0.42828 -0.102246,0.21543 -0.334952,0.47066 -0.522525,0.57358 -0.2785424,0.1509 -0.6360646,0.19392 -0.9371729,0.11286 z"
       id="path30"
       inkscape:connector-curvature="0" />
  </g>
</svg>
