<?xml version="1.0" encoding="UTF-8" standalone="no"?>
<!-- Created with Inkscape (http://www.inkscape.org/) -->

<svg
   xmlns:dc="http://purl.org/dc/elements/1.1/"
   xmlns:cc="http://creativecommons.org/ns#"
   xmlns:rdf="http://www.w3.org/1999/02/22-rdf-syntax-ns#"
   xmlns:svg="http://www.w3.org/2000/svg"
   xmlns="http://www.w3.org/2000/svg"
   xmlns:xlink="http://www.w3.org/1999/xlink"
   xmlns:sodipodi="http://sodipodi.sourceforge.net/DTD/sodipodi-0.dtd"
   xmlns:inkscape="http://www.inkscape.org/namespaces/inkscape"
   width="16.118111"
   height="20.51969"
   viewBox="0 0 4.2645833 5.4291676"
   version="1.1"
   id="svg8"
   inkscape:version="0.92.3 (2405546, 2018-03-11)"
   sodipodi:docname="FINAL.svg">
  <defs
     id="defs2">
    <linearGradient
       inkscape:collect="always"
       id="linearGradient84">
      <stop
         style="stop-color:#e6e6e6;stop-opacity:1;"
         offset="0"
         id="stop80" />
      <stop
         style="stop-color:#e6e6e6;stop-opacity:0;"
         offset="1"
         id="stop82" />
    </linearGradient>
    <inkscape:perspective
       sodipodi:type="inkscape:persp3d"
       inkscape:vp_x="0 : 148.49998 : 1"
       inkscape:vp_y="0 : 999.9999 : 0"
       inkscape:vp_z="210.00009 : 148.49998 : 1"
       inkscape:persp3d-origin="105.00002 : 98.99999 : 1"
       id="perspective12" />
    <linearGradient
       inkscape:collect="always"
       xlink:href="#linearGradient84"
       id="linearGradient86"
       x1="60.476192"
       y1="93.577942"
       x2="60.476192"
       y2="94.192146"
       gradientUnits="userSpaceOnUse"
       gradientTransform="translate(-58.468298,202.61279)" />
  </defs>
  <sodipodi:namedview
     id="base"
     pagecolor="#ffffff"
     bordercolor="#666666"
     borderopacity="1.0"
     inkscape:pageopacity="0.0"
     inkscape:pageshadow="2"
     inkscape:zoom="11.2"
     inkscape:cx="21.545228"
     inkscape:cy="-7.1375814"
     inkscape:document-units="px"
     inkscape:current-layer="layer1"
     showgrid="false"
     inkscape:window-width="1920"
     inkscape:window-height="1051"
     inkscape:window-x="-9"
     inkscape:window-y="-9"
     inkscape:window-maximized="1"
     units="px"
     showborder="false" />
  <metadata
     id="metadata5">
    <rdf:RDF>
      <cc:Work
         rdf:about="">
        <dc:format>image/svg+xml</dc:format>
        <dc:type
           rdf:resource="http://purl.org/dc/dcmitype/StillImage" />
        <dc:title></dc:title>
      </cc:Work>
    </rdf:RDF>
  </metadata>
  <g
     inkscape:label="Layer 1"
     inkscape:groupmode="layer"
     id="layer1"
     transform="translate(0,-291.57081)">
    <rect
       style="opacity:0.32000002;fill:#f9f9f9;fill-opacity:1;stroke-width:0.23124821"
       id="rect71"
       width="3.6751947"
       height="3.6751947"
       x="0.2768378"
       y="291.89218"
       rx="0.61452252"
       ry="0.26080456" />
    <path
       style="opacity:1;fill:#0000ff;fill-opacity:1;stroke-width:0.26123679"
       d="m 0.57251578,291.70791 c -0.287919,0 -0.5198637,0.23195 -0.5198637,0.51987 v 3.06232 c 0,0.28792 0.2319447,0.51986 0.5198637,0.51986 H 3.6880909 c 0.2879199,0 0.5198649,-0.23194 0.5198649,-0.51986 v -3.06232 c 0,-0.28792 -0.231945,-0.51987 -0.5198649,-0.51987 z m 0.08423,0.2465 H 3.5862836 c 0.1832246,0 0.3307299,0.14751 0.3307299,0.33073 v 2.92951 c 0,0.18322 -0.1475053,0.33073 -0.3307299,0.33073 H 0.65674578 c -0.183224,0 -0.330729,-0.14751 -0.330729,-0.33073 v -2.92951 c 0,-0.18322 0.147505,-0.33073 0.330729,-0.33073 z"
       id="rect10"
       inkscape:connector-curvature="0" />
    <path
       style="opacity:0.76839977;fill:#0000ff;fill-opacity:1;stroke-width:0.24588268"
       d="m 0.58853678,296.0854 c -0.245867,0 -0.4438997,0.0982 -0.4438997,0.22015 v 0.45786 c 0,0.12193 0.1980327,0.21963 0.4438997,0.21963 H 3.6932579 c 0.2458649,0 0.4439002,-0.0977 0.4439002,-0.21963 v -0.45786 c 0,-0.12192 -0.1980353,-0.22015 -0.4439002,-0.22015 z m -0.16588101,0.1168 H 3.8782575 c 0.09555,0 0.1726016,0.15043 0.1726016,0.33745 0,0.18702 -0.07705,0.33746 -0.1726016,0.33746 H 0.42265577 c -0.09555,0 -0.17208169,-0.15044 -0.17208169,-0.33746 0,-0.18702 0.07654,-0.33745 0.17208169,-0.33745 z"
       id="rect73"
       inkscape:connector-curvature="0" />
    <rect
       style="opacity:0.55;fill:url(#linearGradient86);fill-opacity:1;stroke-width:0.27122822"
       id="rect78"
       width="3.8256104"
       height="0.65300936"
       x="0.23745383"
       y="296.20267"
       rx="0.18123813"
       ry="0.33756867" />
    <text
       xml:space="preserve"
       style="font-style:normal;font-variant:normal;font-weight:300;font-stretch:normal;font-size:0.6274693px;line-height:1.25;font-family:'Footlight MT Light';-inkscape-font-specification:'Footlight MT Light, Light';font-variant-ligatures:normal;font-variant-caps:normal;font-variant-numeric:normal;font-feature-settings:normal;text-align:start;letter-spacing:0px;word-spacing:0px;writing-mode:lr-tb;text-anchor:start;fill:#000000;fill-opacity:1;stroke:none;stroke-width:0.11765049"
       x="0.61441028"
       y="302.48352"
       id="text161"
       transform="scale(1.0194165,0.98095332)"><tspan
         sodipodi:role="line"
         id="tspan159"
         x="0.61441028"
         y="302.48352"
         style="font-style:normal;font-variant:normal;font-weight:300;font-stretch:normal;font-size:0.6274693px;font-family:'Footlight MT Light';-inkscape-font-specification:'Footlight MT Light, Light';font-variant-ligatures:normal;font-variant-caps:normal;font-variant-numeric:normal;font-feature-settings:normal;text-align:start;writing-mode:lr-tb;text-anchor:start;stroke-width:0.11765049">FEEDBACK</tspan></text>
    <path
       style="fill:#f2f2f2;fill-opacity:1;stroke-width:0.00525871"
       d="m 2.8205859,294.78844 -0.1392331,-0.0757 -0.575952,-10e-4 -0.5759504,-0.001 -0.02007,-0.0125 c -0.01104,-0.007 -0.02642,-0.0221 -0.03418,-0.0338 l -0.01411,-0.0213 -0.0015,-0.26776 c -0.0013,-0.23488 -0.0025,-0.26739 -0.0093,-0.26474 -0.0043,0.002 -0.04959,0.0255 -0.1006107,0.0531 -0.05102,0.0275 -0.09662,0.0501 -0.1013445,0.0501 -0.01834,0 -0.02121,-0.0111 -0.02121,-0.0822 v -0.0695 l -0.1012307,-0.002 c -0.09584,-0.002 -0.1022979,-0.002 -0.1213039,-0.0142 -0.01104,-0.007 -0.02642,-0.0221 -0.03418,-0.0338 l -0.01411,-0.0213 v -0.62396 -0.62392 l 0.01411,-0.0213 c 0.0078,-0.0117 0.02314,-0.0269 0.03418,-0.0338 l 0.02007,-0.0125 h 0.8338903 0.833891 l 0.02132,0.0141 c 0.01172,0.008 0.02694,0.0231 0.0338,0.0342 0.01182,0.019 0.01257,0.0255 0.0142,0.1213 l 0.0017,0.10124 h 0.07392 c 0.08987,0 0.1094515,0.005 0.1410245,0.0367 0.03469,0.0347 0.03667,0.0457 0.03667,0.20409 v 0.13707 l 0.09112,0.002 c 0.08866,0.002 0.09169,0.002 0.112415,0.0159 0.01171,0.008 0.02691,0.0231 0.03378,0.0342 l 0.01248,0.0201 v 0.62315 0.62315 l -0.01248,0.0201 c -0.0069,0.011 -0.02206,0.0264 -0.03378,0.0342 -0.02098,0.0139 -0.02281,0.0141 -0.122932,0.0158 l -0.101633,0.002 v 0.0695 c 0,0.0729 -0.0028,0.0826 -0.0234,0.0817 -0.0059,-2.7e-4 -0.07344,-0.0345 -0.1500135,-0.0762 z m 0.1374184,-0.11101 c 0.0044,-0.005 0.03132,-0.007 0.115783,-0.007 0.119731,0 0.133441,-0.003 0.145315,-0.0288 0.0048,-0.0104 0.0063,-0.16206 0.0063,-0.62381 0,-0.6629 0.0014,-0.63153 -0.02877,-0.64528 -0.0089,-0.004 -0.04384,-0.006 -0.09768,-0.006 h -0.08389 v 0.33408 0.33409 l -0.1031367,0.21248 c -0.05673,0.11686 -0.1064204,0.21374 -0.1104324,0.21528 -0.004,0.002 -0.01055,0.002 -0.01452,3e-5 -0.004,-0.002 -0.05367,-0.0986 -0.1104314,-0.2157 l -0.10321,-0.21291 v -0.33367 -0.33367 h -0.515013 c -0.3152027,0 -0.5201474,0.002 -0.5282494,0.005 -0.03096,0.0118 -0.02952,-0.0198 -0.02952,0.64654 0,0.46175 0.0015,0.61337 0.0063,0.6238 0.01372,0.0301 -0.01433,0.0288 0.6084165,0.0288 h 0.573151 l 0.1304621,0.0707 0.1304634,0.0707 0.0015,-0.0637 c 8.21e-4,-0.036 0.004,-0.0667 0.0072,-0.0707 z m -0.04506,-0.52357 0.05739,-0.11701 0.0014,-0.33524 0.0014,-0.33524 h -0.04212 -0.04211 l -0.0014,0.17428 c -0.0012,0.15937 -0.0022,0.17477 -0.01059,0.18008 -0.0067,0.004 -0.01169,0.004 -0.0184,0 -0.0084,-0.005 -0.0093,-0.0207 -0.01059,-0.18008 l -0.0014,-0.17428 H 2.7307905 2.6150571 l 0.0014,0.33524 0.0014,0.33524 0.05739,0.11701 0.05738,0.117 h 0.06139 0.06139 z m -0.05741,-0.0999 c -0.0081,-0.006 -0.0089,-0.0175 -0.0076,-0.11118 0.0013,-0.093 0.0025,-0.10524 0.01064,-0.11039 0.0067,-0.004 0.01169,-0.004 0.01841,0 0.0082,0.005 0.0094,0.0173 0.01063,0.1086 0.0012,0.0883 2.42e-4,0.10399 -0.007,0.11118 -0.01009,0.0101 -0.01344,0.0103 -0.02514,0.002 z m -1.4444073,0.0277 0.0447,-0.0245 0.0014,-0.18742 0.0014,-0.18743 -0.07181,-10e-4 c -0.06168,-10e-4 -0.07263,-0.003 -0.07761,-0.0107 -0.0042,-0.007 -0.0042,-0.0117 0,-0.0184 0.005,-0.008 0.01593,-0.009 0.07754,-0.0107 l 0.07174,-10e-4 v -0.0814 -0.0814 h -0.06994 c -0.06941,0 -0.08256,-0.003 -0.08256,-0.0191 0,-0.004 0.0037,-0.0102 0.0083,-0.0147 0.0066,-0.007 0.02145,-0.008 0.07625,-0.008 h 0.06799 v -0.0154 c 0,-0.0226 0.009,-0.0427 0.02793,-0.0628 0.03223,-0.034 2.6e-4,-0.0322 0.5687644,-0.0322 h 0.518153 l 1.16e-4,-0.1433 c 1.04e-4,-0.12838 0.0011,-0.14549 0.0099,-0.16433 0.02014,-0.0434 0.0632,-0.071 0.11079,-0.071 h 0.02647 v -0.0977 -0.0978 l -0.01788,-0.0179 -0.01788,-0.0179 H 1.8582198 1.0315505 l -0.01788,0.0179 -0.01788,0.0179 v 0.61632 0.61632 l 0.01788,0.0179 0.01788,0.0179 h 0.112537 c 0.08052,0 0.1143317,0.002 0.1188467,0.006 0.0042,0.004 0.0063,0.0276 0.0063,0.0706 v 0.0643 l 0.04864,-0.0267 c 0.02675,-0.0147 0.06876,-0.0378 0.09334,-0.0513 z m -0.09691,-0.81287 c -0.0099,-0.01 -0.01052,-0.0189 -0.0019,-0.0275 0.0049,-0.005 0.1345268,-0.006 0.5517343,-0.006 0.299984,0 0.5491662,10e-4 0.5537422,0.003 0.0098,0.004 0.01102,0.0236 0.002,0.0326 -0.0049,0.005 -0.1345382,0.006 -0.5517882,0.006 -0.4888785,0 -0.5463353,-8.9e-4 -0.5537413,-0.008 z m -0.0019,-0.20311 c -0.0084,-0.008 -0.008,-0.0226 7.52e-4,-0.0299 0.0052,-0.004 0.1546798,-0.005 0.5555353,-0.005 0.515722,0.001 0.5487402,0.002 0.5541992,0.0105 0.0042,0.007 0.0042,0.0117 0,0.0184 -0.0055,0.009 -0.038509,0.009 -0.5550052,0.0105 -0.4228015,0.001 -0.5506593,-1.2e-4 -0.5555353,-0.005 z m 1.6606761,0.1956 v -0.0631 H 2.7941982 2.6154031 v 0.0631 0.0631 h 0.1787951 0.1787951 z m 0,-0.16179 c 0,-0.0656 -0.0079,-0.0875 -0.03726,-0.10245 -0.0156,-0.008 -0.03424,-0.009 -0.1415394,-0.009 -0.1071284,0 -0.1260284,10e-4 -0.1419844,0.009 -0.02898,0.0145 -0.03679,0.0363 -0.0368,0.10253 l -9e-6,0.0565 H 2.7941956 2.972992 Z"
       id="path99"
       inkscape:connector-curvature="0" />
  </g>
</svg>
