<?xml version="1.0" encoding="UTF-8" standalone="no"?>
<!-- Created with Inkscape (http://www.inkscape.org/) -->

<svg
   xmlns:dc="http://purl.org/dc/elements/1.1/"
   xmlns:cc="http://creativecommons.org/ns#"
   xmlns:rdf="http://www.w3.org/1999/02/22-rdf-syntax-ns#"
   xmlns:svg="http://www.w3.org/2000/svg"
   xmlns="http://www.w3.org/2000/svg"
   xmlns:xlink="http://www.w3.org/1999/xlink"
   xmlns:sodipodi="http://sodipodi.sourceforge.net/DTD/sodipodi-0.dtd"
   xmlns:inkscape="http://www.inkscape.org/namespaces/inkscape"
   width="49"
   height="57"
   viewBox="0 0 12.964583 15.08125"
   version="1.1"
   id="svg8"
   inkscape:version="0.92.3 (2405546, 2018-03-11)"
   sodipodi:docname="HISTORY_FINAL.svg">
  <defs
     id="defs2">
    <linearGradient
       inkscape:collect="always"
       id="linearGradient2045">
      <stop
         style="stop-color:#e6e6e6;stop-opacity:1;"
         offset="0"
         id="stop2041" />
      <stop
         style="stop-color:#e6e6e6;stop-opacity:0;"
         offset="1"
         id="stop2043" />
    </linearGradient>
    <linearGradient
       inkscape:collect="always"
       xlink:href="#linearGradient2045"
       id="linearGradient2047"
       x1="74.133888"
       y1="125.01206"
       x2="74.133888"
       y2="126.7159"
       gradientUnits="userSpaceOnUse"
       gradientTransform="matrix(0.42105291,0,0,0.42105291,-25.06697,242.88301)" />
  </defs>
  <sodipodi:namedview
     id="base"
     pagecolor="#ffffff"
     bordercolor="#666666"
     borderopacity="1.0"
     inkscape:pageopacity="0.0"
     inkscape:pageshadow="2"
     inkscape:zoom="5.6"
     inkscape:cx="83.868873"
     inkscape:cy="30.089296"
     inkscape:document-units="px"
     inkscape:current-layer="layer1"
     showgrid="false"
     inkscape:window-width="1366"
     inkscape:window-height="745"
     inkscape:window-x="-8"
     inkscape:window-y="-8"
     inkscape:window-maximized="1"
     showborder="true"
     units="px"
     showguides="false" />
  <metadata
     id="metadata5">
    <rdf:RDF>
      <cc:Work
         rdf:about="">
        <dc:format>image/svg+xml</dc:format>
        <dc:type
           rdf:resource="http://purl.org/dc/dcmitype/StillImage" />
        <dc:title />
      </cc:Work>
    </rdf:RDF>
  </metadata>
  <g
     inkscape:label="Layer 1"
     inkscape:groupmode="layer"
     id="layer1"
     transform="translate(0,-281.91873)">
    <path
       style="opacity:1;fill:#000000;fill-opacity:1;stroke-width:0.11140357"
       d="m -17.919532,282.1151 c -0.604847,0 -1.091845,0.487 -1.091845,1.09186 v 10.70735 c 0,0.60485 0.486998,1.09185 1.091845,1.09185 h 10.7073841 c 0.6048487,0 1.0918454,-0.487 1.0918454,-1.09185 v -10.70735 c 0,-0.60486 -0.4869967,-1.09186 -1.0918454,-1.09186 z m -0.0046,0.29969 h 10.6939511 c 0.4322447,0 0.7802567,0.348 0.7802567,0.78025 v 10.69388 c 0,0.43225 -0.348012,0.78025 -0.7802567,0.78025 H -17.924078 c -0.432246,0 -0.780262,-0.348 -0.780262,-0.78025 v -10.69388 c 0,-0.43225 0.348016,-0.78025 0.780262,-0.78025 z"
       id="rect12"
       inkscape:connector-curvature="0" />
    <path
       style="opacity:0.38;fill:#000000;fill-opacity:1;stroke-width:0.03436521"
       d="m 2.1698566,295.43845 c -0.4797697,0 -0.8660593,0.0584 -0.8660593,0.13085 v 1.28449 c 0,0.0727 0.3862896,0.13085 0.8660593,0.13085 h 8.4932164 c 0.47977,0 0.866066,-0.0584 0.866066,-0.13085 v -1.28449 c 0,-0.0727 -0.386296,-0.13085 -0.866066,-0.13085 z m -0.00357,0.036 h 8.4825154 c 0.342866,0 0.618911,0.0419 0.618911,0.0935 v 1.28287 c 0,0.0519 -0.276048,0.0935 -0.618911,0.0935 H 2.1662655 c -0.3428624,0 -0.6189111,-0.0419 -0.6189111,-0.0935 v -1.28287 c 0,-0.052 0.2760484,-0.0935 0.6189111,-0.0935 z"
       id="rect12-9"
       inkscape:connector-curvature="0" />
    <rect
       style="opacity:0.38000039;fill:#e6e6e6;fill-opacity:1;stroke-width:0.1576042"
       id="rect32"
       width="12.305833"
       height="12.235499"
       x="0.25031337"
       y="282.47125"
       rx="0.7393977"
       ry="1.090397" />
    <rect
       style="opacity:0.6;fill:url(#linearGradient2047);fill-opacity:1;stroke-width:0.14645708"
       id="rect2039"
       width="9.7412319"
       height="1.4273336"
       x="1.5409904"
       y="295.49344"
       rx="0.29810709"
       ry="0.17670295" />
    <text
       xml:space="preserve"
       style="font-style:normal;font-weight:normal;font-size:1.33977437px;line-height:1.25;font-family:sans-serif;letter-spacing:0px;word-spacing:0px;fill:#ffffff;fill-opacity:1;stroke:none;stroke-width:0.25120771;"
       x="3.6380901"
       y="282.53323"
       id="text2088"
       transform="scale(0.95221799,1.0501797)"><tspan
         sodipodi:role="line"
         id="tspan2086"
         x="3.6380901"
         y="282.53323"
         style="stroke-width:0.25120771;fill:#ffffff;">HISTORY</tspan></text>
    <g
       id="g2153"
       transform="matrix(0.01833197,0,0,0.01735116,1.7684555,284.00225)"
       style="fill:#f2f2f2">
      <path
         id="path2136"
         d="m 509.92578,495.90625 -53.93359,-70.16406 c -1.67969,-2.19141 -4.19141,-3.58594 -6.94141,-3.85938 -36.58984,-3.6289 -56.125,-11.39844 -71.82812,-17.64453 -13.89063,-5.52344 -28.25,-11.23437 -46.78125,-11.23437 -28.22657,0 -49.80469,15.05078 -64.44141,32.10937 v -0.37109 c 8.15234,-18.79688 29.88281,-48.45703 63.64062,-48.45703 14.52344,0 25.83204,4.5 38.9375,9.71093 10.9336,4.34766 24.54297,9.76172 44.4375,13.94141 5.40625,1.13672 10.70704,-2.32422 11.84375,-7.73047 1.13282,-5.40234 -2.32812,-10.70703 -7.73046,-11.83984 -18.21485,-3.82813 -30.40235,-8.67578 -41.16407,-12.95703 -13.75,-5.46875 -27.96875,-11.125 -46.32422,-11.125 -35.14453,0 -59.8789,23.55078 -73.64062,45 -13.76172,-21.44922 -38.49609,-45 -73.64453,-45 -18.35156,0 -32.57422,5.65625 -46.32813,11.1289 -15.51953,6.17188 -34.83593,13.85547 -71.015621,17.44141 -5.496094,0.54687 -9.507813,5.4414 -8.964844,10.9375 0.546875,5.49609 5.445313,9.50781 10.941406,8.96484 38.976559,-3.86719 60.624999,-12.47656 76.433589,-18.76172 13.09766,-5.21093 24.41016,-9.71093 38.9336,-9.71093 33.76172,0 55.49609,29.66406 63.64453,48.46093 v 0.36719 C 231.35937,408.05469 209.78516,393 181.55469,393 c -18.52735,0 -32.89063,5.71484 -46.78907,11.24219 -15.69531,6.24218 -35.226558,14.01172 -71.820308,17.64062 -2.746093,0.27344 -5.257812,1.66797 -6.941406,3.85938 L 2.074219,495.90625 C -0.25,498.92578 -0.652344,503.00391 1.03125,506.42187 2.714844,509.83594 6.191406,512 10,512 h 492 c 3.80859,0 7.28516,-2.16406 8.96875,-5.57813 1.68359,-3.41796 1.28125,-7.49609 -1.04297,-10.51562 z M 330.44141,413 c 14.69921,0 26.14062,4.55078 39.39843,9.82422 15.375,6.11719 36.22266,14.40625 72.91016,18.5039 l 38.84375,50.53516 c -66.83203,-1.4414 -98.55078,-14.05859 -119.96094,-22.57422 -12.42578,-4.9414 -20.63281,-8.20703 -31.1914,-8.20703 -18.48047,0 -31.14844,13.87109 -36.39844,25.78516 -0.0469,0.0937 -0.0937,0.1875 -0.14063,0.28515 L 291.625,492 H 266 V 462.07422 C 274.24219,443.05078 296.24609,413 330.44141,413 Z M 69.25,441.32812 c 36.6875,-4.09765 57.53125,-12.39062 72.91797,-18.50781 C 155.41406,417.55078 166.85937,413 181.55469,413 215.75,413 237.75781,443.05078 246,462.07422 V 492 h -25.62891 l -2.27343,-4.84766 c -0.0469,-0.0976 -0.0937,-0.1914 -0.14063,-0.28515 -5.25391,-11.91406 -17.91797,-25.78516 -36.39844,-25.78516 -10.55859,0 -18.76562,3.26563 -31.1914,8.20703 -21.41016,8.51563 -53.132815,21.13282 -119.96094,22.57422 z m 88.51172,46.54297 c 11.00781,-4.3789 17.07031,-6.78906 23.79297,-6.78906 8.6289,0 14.04687,6.78906 16.54687,10.91797 h -50.92187 c 3.80468,-1.43359 7.30468,-2.82422 10.58203,-4.12891 z M 313.89844,492 c 2.5,-4.12891 7.91797,-10.91797 16.54297,-10.91797 6.72656,0 12.78906,2.41016 23.80078,6.79297 3.27343,1.30078 6.77734,2.69141 10.57812,4.125 z m 0,0"
         inkscape:connector-curvature="0"
         style="fill:#f2f2f2" />
      <path
         id="path2138"
         d="m 444.65625,404.72266 0.36328,0.0351 c 0.33203,0.0312 0.66406,0.0508 0.98828,0.0508 5.08594,0 9.4336,-3.85937 9.94141,-9.02343 0.53906,-5.4961 -3.47656,-10.39063 -8.97266,-10.92969 l -0.35547,-0.0352 c -5.49609,-0.54687 -10.39062,3.47266 -10.93359,8.96875 -0.54297,5.4961 3.47266,10.39063 8.96875,10.9336 z m 0,0"
         inkscape:connector-curvature="0"
         style="fill:#f2f2f2" />
      <path
         id="path2140"
         d="m 222.24609,246.03906 c -2.59765,0.22266 -5.02343,1.45313 -6.73437,3.44922 -1.90235,2.21484 -2.73828,5.14844 -2.29688,8.03125 4.14453,26.99609 18.51172,45.44141 39.48828,51.76563 -0.48046,3.78125 -0.92578,7.5664 -1.32421,11.36328 l -5.32422,50.77734 c -0.57422,5.49219 3.41015,10.41406 8.90234,10.98828 0.35547,0.0391 0.70703,0.0547 1.05469,0.0547 5.05469,0 9.39453,-3.81641 9.93359,-8.95703 l 5.32422,-50.77734 c 0.38672,-3.69141 0.82031,-7.36719 1.28125,-11.03516 46.51563,-0.57422 74.91406,-30.23438 89.12891,-92.94922 1.58203,-6.97656 3.5,-15.10156 5.70703,-24.15234 0.69922,-2.86719 0.0976,-5.89453 -1.64844,-8.27735 -0.64844,-0.88281 -1.42969,-1.64453 -2.30469,-2.26172 l 3.9336,-2.25 c 2.36328,-1.34765 4.07422,-3.60546 4.73437,-6.24609 17.47266,-69.53125 43.05078,-161.964844 43.3086,-162.890625 0.86328,-3.109375 0.17187,-6.441406 -1.85547,-8.949219 -2.02344,-2.511718 -5.14844,-3.898437 -8.35547,-3.7031248 C 401.8125,0.210938 321.47656,6.015625 255.44141,113.44922 c -0.82032,1.33203 -1.61719,2.65234 -2.40625,3.97656 -1.21485,2.02344 -1.67188,4.41406 -1.29688,6.74219 L 256.74609,155 h -16.98046 c -4.00782,0 -7.625,2.39063 -9.19922,6.07422 -10.70703,25.08984 -16.85938,48.64062 -18.28907,70.00781 -0.1914,2.83985 0.83985,5.62891 2.83204,7.66406 z m 131.5,-79.48047 -26.70703,15.26172 c -3.82812,2.1875 -5.77344,6.625 -4.78515,10.92188 0.98828,4.29687 4.67578,7.4414 9.07421,7.73828 l 13.84766,0.92969 c -1.10156,4.64062 -2.10547,8.95703 -3.0039,12.91796 -14.4336,63.6875 -41.08985,76.26172 -66.69141,77.32422 14.67187,-88.47265 51.80078,-170.63281 108.60937,-240.253902 -8.72656,32.1875 -20.63671,76.726562 -30.34375,115.160152 z m -107.29687,8.44532 H 268.5 c 2.92969,0 5.71484,-1.28907 7.61719,-3.52344 1.89843,-2.23438 2.72265,-5.1875 2.2539,-8.08203 l -6.30078,-38.8086 c 0.13281,-0.22265 0.26953,-0.4414 0.40625,-0.66406 31.52735,-51.292968 66.28516,-76.820311 89.89063,-89.203124 5.58984,-2.933594 10.83203,-5.28125 15.61718,-7.171875 -34.41015,39.953125 -62.64453,84.613279 -83.96484,132.898439 -18.19922,41.21094 -31.05859,84.36719 -38.38281,128.67187 C 244.74609,284.66016 238.90625,275.11328 235.77344,266 H 246 c 4.02734,0 7.66016,-2.41406 9.21875,-6.125 1.55859,-3.70703 0.74219,-7.99219 -2.07422,-10.87109 l -20.54687,-20.98438 c 1.61718,-16.25 6.26562,-34.03906 13.85156,-53.01562 z m 0,0"
         inkscape:connector-curvature="0"
         style="fill:#f2f2f2" />
    </g>
  </g>
</svg>
