<?xml version="1.0" encoding="UTF-8" standalone="no"?>
<!-- Created with Inkscape (http://www.inkscape.org/) -->

<svg
   xmlns:dc="http://purl.org/dc/elements/1.1/"
   xmlns:cc="http://creativecommons.org/ns#"
   xmlns:rdf="http://www.w3.org/1999/02/22-rdf-syntax-ns#"
   xmlns:svg="http://www.w3.org/2000/svg"
   xmlns="http://www.w3.org/2000/svg"
   xmlns:sodipodi="http://sodipodi.sourceforge.net/DTD/sodipodi-0.dtd"
   xmlns:inkscape="http://www.inkscape.org/namespaces/inkscape"
   width="30.236221"
   height="30.236221"
   viewBox="0 0 8 8"
   version="1.1"
   id="svg463"
   inkscape:version="0.92.3 (2405546, 2018-03-11)"
   sodipodi:docname="login2.svg">
  <defs
     id="defs457" />
  <sodipodi:namedview
     id="base"
     pagecolor="#ffffff"
     bordercolor="#666666"
     borderopacity="1.0"
     inkscape:pageopacity="0.0"
     inkscape:pageshadow="2"
     inkscape:zoom="7.919596"
     inkscape:cx="34.350407"
     inkscape:cy="1.7890376"
     inkscape:document-units="px"
     inkscape:current-layer="layer1-5"
     showgrid="false"
     units="px"
     showborder="true"
     inkscape:window-width="1366"
     inkscape:window-height="745"
     inkscape:window-x="-8"
     inkscape:window-y="-8"
     inkscape:window-maximized="1" />
  <metadata
     id="metadata460">
    <rdf:RDF>
      <cc:Work
         rdf:about="">
        <dc:format>image/svg+xml</dc:format>
        <dc:type
           rdf:resource="http://purl.org/dc/dcmitype/StillImage" />
        <dc:title />
      </cc:Work>
    </rdf:RDF>
  </metadata>
  <g
     inkscape:label="Layer 1"
     inkscape:groupmode="layer"
     id="layer1"
     transform="translate(0,-289)">
    <g
       transform="matrix(0.03806346,0,0,0.03806346,-0.03387112,285.6427)"
       id="layer1-5"
       inkscape:label="Layer 1">
      <ellipse
         style="opacity:0.38000039;fill:#ffffff;stroke-width:8.34580994"
         id="path23"
         cx="105.77622"
         cy="191.45393"
         rx="99.620117"
         ry="94.353859" />
      <path
         style="opacity:1;fill:#000000;fill-opacity:1;stroke-width:0.21779728"
         d="M 102.58669,91.123119 A 102.05357,102.05357 0 0 0 0.5329615,193.17682 102.05357,102.05357 0 0 0 102.58669,295.23052 102.05357,102.05357 0 0 0 204.6404,193.17682 102.05357,102.05357 0 0 0 102.58669,91.123119 Z m -2.864621,21.885121 a 55.912042,55.912042 0 0 1 55.921141,55.90757 55.912042,55.912042 0 0 1 -31.63297,50.28694 55.912042,55.912042 0 0 1 32.4747,50.69423 55.912042,55.912042 0 0 1 -0.0407,1.09969 h -11.26841 a 44.899065,44.899065 0 0 0 0.0815,-1.60201 44.899065,44.899065 0 0 0 -41.82884,-44.74778 55.912042,55.912042 0 0 1 -3.706361,0.17649 55.912042,55.912042 0 0 1 -3.40768,-0.10861 44.899065,44.899065 0 0 0 -40.851363,44.6799 44.899065,44.899065 0 0 0 0.0543,1.60201 h -10.80686 a 55.912042,55.912042 0 0 1 -0.0543,-1.09969 55.912042,55.912042 0 0 1 31.632982,-50.28694 55.912042,55.912042 0 0 1 -32.474723,-50.69423 55.912042,55.912042 0 0 1 55.907584,-55.90757 z m -0.20364,10.50813 A 44.899065,44.899065 0 0 0 54.621296,168.41348 44.899065,44.899065 0 0 0 99.518429,213.3106 44.899065,44.899065 0 0 0 144.41553,168.41348 44.899065,44.899065 0 0 0 99.518429,123.51637 Z"
         id="path108"
         inkscape:connector-curvature="0" />
    </g>
  </g>
</svg>
