<?xml version="1.0" encoding="UTF-8" standalone="no"?>
<!-- Created with Inkscape (http://www.inkscape.org/) -->

<svg
   xmlns:dc="http://purl.org/dc/elements/1.1/"
   xmlns:cc="http://creativecommons.org/ns#"
   xmlns:rdf="http://www.w3.org/1999/02/22-rdf-syntax-ns#"
   xmlns:svg="http://www.w3.org/2000/svg"
   xmlns="http://www.w3.org/2000/svg"
   xmlns:xlink="http://www.w3.org/1999/xlink"
   xmlns:sodipodi="http://sodipodi.sourceforge.net/DTD/sodipodi-0.dtd"
   xmlns:inkscape="http://www.inkscape.org/namespaces/inkscape"
   width="49"
   height="57"
   viewBox="0 0 12.964583 15.08125"
   version="1.1"
   id="svg8"
   inkscape:version="0.92.3 (2405546, 2018-03-11)"
   sodipodi:docname="SCHEDULE_FINAL.svg">
  <defs
     id="defs2">
    <linearGradient
       inkscape:collect="always"
       id="linearGradient2045">
      <stop
         style="stop-color:#e6e6e6;stop-opacity:1;"
         offset="0"
         id="stop2041" />
      <stop
         style="stop-color:#e6e6e6;stop-opacity:0;"
         offset="1"
         id="stop2043" />
    </linearGradient>
    <linearGradient
       inkscape:collect="always"
       xlink:href="#linearGradient2045"
       id="linearGradient2047"
       x1="74.133888"
       y1="125.01206"
       x2="74.133888"
       y2="126.7159"
       gradientUnits="userSpaceOnUse"
       gradientTransform="matrix(0.42105291,0,0,0.42105291,-25.06697,242.88301)" />
  </defs>
  <sodipodi:namedview
     id="base"
     pagecolor="#ffffff"
     bordercolor="#666666"
     borderopacity="1.0"
     inkscape:pageopacity="0.0"
     inkscape:pageshadow="2"
     inkscape:zoom="5.6"
     inkscape:cx="-0.48214286"
     inkscape:cy="36.506452"
     inkscape:document-units="px"
     inkscape:current-layer="layer1"
     showgrid="false"
     inkscape:window-width="1366"
     inkscape:window-height="745"
     inkscape:window-x="-8"
     inkscape:window-y="-8"
     inkscape:window-maximized="1"
     showborder="false"
     units="px"
     showguides="false" />
  <metadata
     id="metadata5">
    <rdf:RDF>
      <cc:Work
         rdf:about="">
        <dc:format>image/svg+xml</dc:format>
        <dc:type
           rdf:resource="http://purl.org/dc/dcmitype/StillImage" />
        <dc:title />
      </cc:Work>
    </rdf:RDF>
  </metadata>
  <g
     inkscape:label="Layer 1"
     inkscape:groupmode="layer"
     id="layer1"
     transform="translate(0,-281.91873)">
    <path
       style="opacity:1;fill:#000000;fill-opacity:1;stroke-width:0.11140357"
       d="m -18.977866,282.1151 c -0.604847,0 -1.091845,0.487 -1.091845,1.09186 v 10.70735 c 0,0.60485 0.486998,1.09185 1.091845,1.09185 h 10.7073847 c 0.6048487,0 1.0918454,-0.487 1.0918454,-1.09185 v -10.70735 c 0,-0.60486 -0.4869967,-1.09186 -1.0918454,-1.09186 z m -0.0046,0.29969 h 10.6939517 c 0.4322447,0 0.7802567,0.348 0.7802567,0.78025 v 10.69388 c 0,0.43225 -0.348012,0.78025 -0.7802567,0.78025 H -18.982412 c -0.432246,0 -0.780262,-0.348 -0.780262,-0.78025 v -10.69388 c 0,-0.43225 0.348016,-0.78025 0.780262,-0.78025 z"
       id="rect12"
       inkscape:connector-curvature="0" />
    <path
       style="opacity:0.38;fill:#000000;fill-opacity:1;stroke-width:0.03436521"
       d="m 2.1698566,295.43845 c -0.4797697,0 -0.8660593,0.0584 -0.8660593,0.13085 v 1.28449 c 0,0.0727 0.3862896,0.13085 0.8660593,0.13085 h 8.4932164 c 0.47977,0 0.866066,-0.0584 0.866066,-0.13085 v -1.28449 c 0,-0.0727 -0.386296,-0.13085 -0.866066,-0.13085 z m -0.00357,0.036 h 8.4825154 c 0.342866,0 0.618911,0.0419 0.618911,0.0935 v 1.28287 c 0,0.0519 -0.276048,0.0935 -0.618911,0.0935 H 2.1662655 c -0.3428624,0 -0.6189111,-0.0419 -0.6189111,-0.0935 v -1.28287 c 0,-0.052 0.2760484,-0.0935 0.6189111,-0.0935 z"
       id="rect12-9"
       inkscape:connector-curvature="0" />
    <rect
       style="opacity:0.38000039;fill:#e6e6e6;fill-opacity:1;stroke-width:0.1576042"
       id="rect32"
       width="12.305833"
       height="12.235499"
       x="0.31645259"
       y="282.42401"
       rx="0.7393977"
       ry="1.090397" />
    <rect
       style="opacity:0.6;fill:url(#linearGradient2047);fill-opacity:1;stroke-width:0.14645708"
       id="rect2039"
       width="9.7412319"
       height="1.4273336"
       x="1.5409904"
       y="295.49344"
       rx="0.29810709"
       ry="0.17670295" />
    <text
       xml:space="preserve"
       style="font-style:normal;font-weight:normal;font-size:1.33977437px;line-height:1.25;font-family:sans-serif;letter-spacing:0px;word-spacing:0px;fill:#ffffff;fill-opacity:1;stroke:none;stroke-width:0.25120771;"
       x="2.9435141"
       y="282.53323"
       id="text2088"
       transform="scale(0.95221799,1.0501797)"><tspan
         sodipodi:role="line"
         id="tspan2086"
         x="2.9435141"
         y="282.53323"
         style="stroke-width:0.25120771;fill:#ffffff;">SCHEDULE</tspan></text>
    <path
       style="fill:#ececec;stroke-width:0.03943218"
       d="m 7.8378211,293.64388 c -0.7572959,-0.1234 -1.3998023,-0.48995 -1.9156552,-1.0929 -0.4124993,-0.48214 -0.2173217,-0.44186 -2.2509838,-0.46461 -1.7093841,-0.0191 -1.7655999,-0.0222 -1.8735215,-0.10207 -0.061191,-0.0453 -0.1510015,-0.16064 -0.1995743,-0.25631 l -0.088318,-0.17396 -4.061e-4,-3.79661 c -4.497e-4,-4.1812 -0.011542,-3.99236 0.2436703,-4.14796 0.1287754,-0.0786 0.1873707,-0.0796 4.3634029,-0.0797 3.8478369,-1.4e-4 4.2428046,0.005 4.3420516,0.0644 0.21454,0.12673 0.245277,0.23729 0.26817,0.96461 l 0.02097,0.66648 H 7.2915433 3.8354514 v 3.33202 c 0,3.32137 2.368e-4,3.33202 0.079991,3.33202 0.043994,0 0.3039862,-0.0453 0.577757,-0.10078 0.2737717,-0.0555 0.5979758,-0.10424 0.7204548,-0.10845 l 0.2226883,-0.008 -0.068565,-0.18144 c -0.2149376,-0.56881 -0.2456562,-1.40574 -0.073668,-2.00705 0.3010607,-1.05256 1.1589831,-1.88984 2.2479635,-2.19388 0.3913811,-0.10928 1.2186389,-0.0998 1.6342044,0.0186 0.3617286,0.10313 0.8183539,0.33137 1.1169886,0.55833 0.1143,0.0868 0.213112,0.15794 0.219582,0.15794 0.0065,0 0.0038,-0.24811 -0.0058,-0.55135 -0.01543,-0.48323 -0.0097,-0.5544 0.04659,-0.57599 0.05638,-0.0216 0.06418,-0.12233 0.06418,-0.82877 0,-0.5098 0.01444,-0.80414 0.03944,-0.80414 0.02559,0 0.03943,0.51916 0.03943,1.4786 v 1.47859 l 0.181656,0.24656 c 0.479589,0.65095 0.698661,1.46135 0.608831,2.25223 -0.08657,0.76221 -0.377456,1.43142 -0.844596,1.94312 -0.505345,0.55354 -1.1677961,0.89609 -1.9302105,0.99811 -0.3737868,0.05 -0.4695753,0.0481 -0.8745126,-0.0179 z m 1.0431654,-1.14251 c 0.7910188,-0.2105 1.4548035,-0.89658 1.6146815,-1.66892 0.09661,-0.46671 0.03601,-1.0177 -0.157753,-1.43437 -0.08551,-0.18389 -0.08554,-0.18467 -0.0089,-0.31546 0.06189,-0.1057 0.09763,-0.12861 0.18431,-0.11824 0.09983,0.0119 0.105608,0.005 0.0807,-0.0986 -0.01475,-0.0613 -0.06067,-0.17901 -0.102035,-0.26157 -0.04137,-0.0826 -0.06501,-0.18226 -0.05254,-0.22155 0.01645,-0.0518 -0.04064,-0.13005 -0.207929,-0.28494 -0.3906237,-0.36165 -1.0182315,-0.64044 -1.5537833,-0.69022 l -0.2681103,-0.0249 v 0.38026 c 0,0.35398 -0.00543,0.38027 -0.07886,0.38027 -0.07341,0 -0.07886,-0.0263 -0.07886,-0.38027 v -0.38026 l -0.2669579,0.0248 c -0.7310544,0.068 -1.4667426,0.47206 -1.9623882,1.07796 -0.3487794,0.42635 -0.6463856,1.1786 -0.6485185,1.63923 l -6.849e-4,0.14788 h 0.3746062 c 0.3621657,0 0.3746079,0.003 0.3746934,0.0887 7.93e-5,0.0867 -0.00828,0.0884 -0.380532,0.076 l -0.3806211,-0.0127 0.025542,0.27478 c 0.051457,0.55361 0.3776875,1.27169 0.6464773,1.42296 0.4517575,0.25425 0.5600213,0.28901 0.8983135,0.28851 0.1804417,-2.7e-4 0.3457244,-0.0114 0.3672959,-0.0247 0.02157,-0.0134 0.089505,-0.004 0.1509667,0.0202 0.3986018,0.15862 1.0336166,0.20082 1.4309378,0.0951 z m -0.7769983,-1.82172 c -0.070596,-0.0492 -0.088541,-0.0992 -0.087846,-0.24438 8.906e-4,-0.19336 0.071032,-0.31689 0.2243626,-0.39535 0.069545,-0.0356 0.1434022,-0.21675 0.3643075,-0.89361 0.1523952,-0.46694 0.2962249,-0.88474 0.3196221,-0.92846 0.054708,-0.10222 0.2104536,-0.0858 0.2254099,0.0239 0.00588,0.0434 -0.1202989,0.46037 -0.2804831,0.92666 l -0.2912439,0.84779 0.073259,0.1183 c 0.1105756,0.17856 0.095453,0.35889 -0.04159,0.49593 -0.1326182,0.13262 -0.3552005,0.15428 -0.5057941,0.0492 z m 0.3041661,-0.26742 c 0.059642,-0.0719 0.020893,-0.13974 -0.07976,-0.13974 -0.047931,0 -0.076536,0.027 -0.076536,0.0723 0,0.12912 0.077391,0.16251 0.156295,0.0674 z M 7.4829314,290.1977 c -0.2168764,-0.0814 -0.6014737,-0.22356 -0.8546602,-0.31585 -0.2531862,-0.0923 -0.4699996,-0.19299 -0.4818069,-0.22376 -0.028507,-0.0743 0.0081,-0.16296 0.078356,-0.18993 0.039734,-0.0152 1.6517,0.55238 1.779901,0.62676 0.017625,0.0102 -0.085789,0.25641 -0.1065395,0.25362 -0.011506,-0.002 -0.1983738,-0.0695 -0.4152504,-0.15084 z m -4.6812374,0.97187 0.011195,-0.42389 h 0.1366792 c 0.1195018,0 0.1366783,-0.0124 0.1366783,-0.0986 v -0.0986 H 2.672208 2.2581707 v 0.0986 c 0,0.0887 0.015772,0.0986 0.157728,0.0986 h 0.1577289 v 0.40746 c 0,0.22411 0.012575,0.42004 0.027955,0.43542 0.015371,0.0154 0.064175,0.0228 0.1084391,0.0164 0.074505,-0.0107 0.081318,-0.043 0.091678,-0.43541 z m -0.2258115,-1.56782 c 0.05038,-0.19541 0.1029763,-0.3418 0.1168862,-0.32532 0.024215,0.0287 0.060069,0.14688 0.1556182,0.51301 0.0385,0.14751 0.057139,0.16759 0.1556307,0.16759 0.1103413,0 0.1136053,-0.007 0.2350726,-0.49187 0.067746,-0.27053 0.123179,-0.51007 0.123179,-0.53233 0,-0.0223 -0.043674,-0.0404 -0.097061,-0.0404 -0.1032951,0 -0.1033005,1e-5 -0.2215074,0.51261 l -0.050015,0.21689 -0.054468,-0.21689 c -0.1390927,-0.55378 -0.1210345,-0.51848 -0.2583798,-0.50509 -0.1220961,0.0119 -0.126931,0.0199 -0.2025569,0.33751 -0.042614,0.17892 -0.091824,0.32531 -0.1093608,0.32531 -0.017536,0 -0.031891,-0.0275 -0.031891,-0.0612 0,-0.0337 -0.027964,-0.18419 -0.062153,-0.33448 -0.05689,-0.25014 -0.07024,-0.2726 -0.1577288,-0.26536 -0.1191545,0.01 -0.1190111,0.0306 0.00374,0.54276 0.1287415,0.53709 0.1168506,0.51262 0.249068,0.51262 0.110873,0 0.1170403,-0.0107 0.2058921,-0.35528 z m 0.2258115,-1.78392 0.011195,-0.4239 h 0.1366792 c 0.1195018,0 0.1366783,-0.0124 0.1366783,-0.0986 v -0.0986 H 2.672208 2.2581707 v 0.0986 c 0,0.0887 0.015772,0.0986 0.157728,0.0986 h 0.1577289 v 0.43638 0.43637 l 0.1084391,-0.0125 0.1084382,-0.0125 z m -0.4221165,-1.61671 c 0.00169,-0.20061 0.00953,-0.34701 0.017375,-0.32532 0.00784,0.0217 0.052749,0.18583 0.099787,0.36475 0.080526,0.30631 0.09176,0.32531 0.1922885,0.32531 0.1007677,0 0.1107617,-0.0172 0.177863,-0.3056 0.1065502,-0.45799 0.1379305,-0.47131 0.1392859,-0.0591 0.00116,0.36245 0.00178,0.36474 0.099779,0.36474 h 0.09858 v -0.5346 -0.5346 l -0.1675867,0.0121 -0.1675866,0.0121 -0.07886,0.30241 c -0.043371,0.16632 -0.090043,0.31354 -0.1037048,0.32715 -0.013661,0.0136 -0.036389,-0.0368 -0.050496,-0.11202 -0.014107,-0.0752 -0.052419,-0.22686 -0.085121,-0.33701 -0.058502,-0.19701 -0.062002,-0.20025 -0.2156715,-0.20025 H 2.1793085 v 0.53233 0.53233 h 0.09858 c 0.097824,0 0.098604,-0.003 0.1016939,-0.36474 z m 2.82729,-1.8336 0.010999,-0.52247 h -0.098337 c -0.054129,0 -0.115317,0.0317 -0.1361039,0.0705 -0.020768,0.0388 -0.0835,0.0951 -0.1393999,0.12497 -0.064602,0.0346 -0.1016333,0.0879 -0.1016333,0.1463 0,0.10792 0.029763,0.11402 0.1489549,0.0306 l 0.087642,-0.0614 v 0.37946 0.37946 l 0.1084382,-0.0125 0.1084382,-0.0125 z m 2.4140772,0.44361 c 0,-0.0925 -0.012593,-0.0986 -0.205371,-0.0986 H 7.2102026 l 0.161333,-0.16758 c 0.2760213,-0.28672 0.3149991,-0.44076 0.1526205,-0.60314 -0.1852485,-0.18524 -0.5735588,-0.0906 -0.5735588,0.13981 0,0.0556 0.026288,0.0788 0.089095,0.0788 0.049002,0 0.1112587,-0.0355 0.1383472,-0.0788 0.059063,-0.0946 0.10175,-0.0989 0.1821039,-0.0186 0.081621,0.0816 0.046577,0.16084 -0.1739463,0.39318 -0.1848762,0.19479 -0.275032,0.32966 -0.275032,0.41145 0,0.0266 0.1299901,0.042 0.3548899,0.042 0.3522608,0 0.3548897,-7.3e-4 0.3548897,-0.0986 z m 2.1718026,-0.0166 c 0.135018,-0.13501 0.149197,-0.28456 0.03757,-0.39618 -0.07435,-0.0744 -0.0748,-0.0827 -0.01039,-0.19498 0.06461,-0.11258 0.064,-0.12173 -0.01494,-0.2279 -0.145815,-0.19612 -0.5673187,-0.14579 -0.5673187,0.0678 0,0.0981 0.1478639,0.10652 0.2166858,0.0124 0.062554,-0.0856 0.1776359,-0.0415 0.1776359,0.068 0,0.0506 -0.03121,0.092 -0.07886,0.10442 -0.1042904,0.0273 -0.1054543,0.16916 -0.0014,0.16916 0.106749,0 0.174561,0.13404 0.119683,0.23659 -0.0496,0.0927 -0.2177802,0.10589 -0.2508526,0.0197 -0.012486,-0.0325 -0.067612,-0.0591 -0.1225155,-0.0591 -0.1141763,0 -0.1150989,0.002 -0.055884,0.13215 0.094383,0.20714 0.3766081,0.24203 0.5505861,0.068 z"
       id="path2179"
       inkscape:connector-curvature="0" />
  </g>
</svg>
