<?xml version="1.0" encoding="UTF-8" standalone="no"?>
<!-- Created with Inkscape (http://www.inkscape.org/) -->

<svg
   xmlns:dc="http://purl.org/dc/elements/1.1/"
   xmlns:cc="http://creativecommons.org/ns#"
   xmlns:rdf="http://www.w3.org/1999/02/22-rdf-syntax-ns#"
   xmlns:svg="http://www.w3.org/2000/svg"
   xmlns="http://www.w3.org/2000/svg"
   xmlns:xlink="http://www.w3.org/1999/xlink"
   xmlns:sodipodi="http://sodipodi.sourceforge.net/DTD/sodipodi-0.dtd"
   xmlns:inkscape="http://www.inkscape.org/namespaces/inkscape"
   width="49"
   height="57"
   viewBox="0 0 12.964583 15.08125"
   version="1.1"
   id="svg8"
   inkscape:version="0.92.3 (2405546, 2018-03-11)"
   sodipodi:docname="EVENTS_FINAL.svg">
  <defs
     id="defs2">
    <linearGradient
       inkscape:collect="always"
       id="linearGradient2045">
      <stop
         style="stop-color:#e6e6e6;stop-opacity:1;"
         offset="0"
         id="stop2041" />
      <stop
         style="stop-color:#e6e6e6;stop-opacity:0;"
         offset="1"
         id="stop2043" />
    </linearGradient>
    <linearGradient
       inkscape:collect="always"
       xlink:href="#linearGradient2045"
       id="linearGradient2047"
       x1="74.133888"
       y1="125.01206"
       x2="74.133888"
       y2="126.7159"
       gradientUnits="userSpaceOnUse"
       gradientTransform="matrix(0.42105291,0,0,0.42105291,-25.06697,242.88301)" />
  </defs>
  <sodipodi:namedview
     id="base"
     pagecolor="#ffffff"
     bordercolor="#666666"
     borderopacity="1.0"
     inkscape:pageopacity="0.0"
     inkscape:pageshadow="2"
     inkscape:zoom="5.6"
     inkscape:cx="96.912794"
     inkscape:cy="18.464286"
     inkscape:document-units="px"
     inkscape:current-layer="layer1"
     showgrid="false"
     inkscape:window-width="1366"
     inkscape:window-height="745"
     inkscape:window-x="-8"
     inkscape:window-y="-8"
     inkscape:window-maximized="1"
     showborder="false"
     units="px" />
  <metadata
     id="metadata5">
    <rdf:RDF>
      <cc:Work
         rdf:about="">
        <dc:format>image/svg+xml</dc:format>
        <dc:type
           rdf:resource="http://purl.org/dc/dcmitype/StillImage" />
        <dc:title />
      </cc:Work>
    </rdf:RDF>
  </metadata>
  <g
     inkscape:label="Layer 1"
     inkscape:groupmode="layer"
     id="layer1"
     transform="translate(0,-281.91873)">
    <path
       style="opacity:1;fill:#000000;fill-opacity:1;stroke-width:0.11140357"
       d="m 37.113824,282.1151 c -0.604846,0 -1.091845,0.487 -1.091845,1.09186 v 10.70735 c 0,0.60485 0.486999,1.09185 1.091845,1.09185 H 47.82121 c 0.604849,0 1.091846,-0.487 1.091846,-1.09185 v -10.70735 c 0,-0.60486 -0.486997,-1.09186 -1.091846,-1.09186 z m -0.0046,0.29969 h 10.693953 c 0.432245,0 0.780257,0.348 0.780257,0.78025 v 10.69388 c 0,0.43225 -0.348012,0.78025 -0.780257,0.78025 H 37.109278 c -0.432246,0 -0.780262,-0.348 -0.780262,-0.78025 v -10.69388 c 0,-0.43225 0.348016,-0.78025 0.780262,-0.78025 z"
       id="rect12"
       inkscape:connector-curvature="0" />
    <path
       style="opacity:0.38;fill:#000000;fill-opacity:1;stroke-width:0.03436521"
       d="m 2.1698566,295.43845 c -0.4797697,0 -0.8660593,0.0584 -0.8660593,0.13085 v 1.28449 c 0,0.0727 0.3862896,0.13085 0.8660593,0.13085 h 8.4932164 c 0.47977,0 0.866066,-0.0584 0.866066,-0.13085 v -1.28449 c 0,-0.0727 -0.386296,-0.13085 -0.866066,-0.13085 z m -0.00357,0.036 h 8.4825154 c 0.342866,0 0.618911,0.0419 0.618911,0.0935 v 1.28287 c 0,0.0519 -0.276048,0.0935 -0.618911,0.0935 H 2.1662655 c -0.3428624,0 -0.6189111,-0.0419 -0.6189111,-0.0935 v -1.28287 c 0,-0.052 0.2760484,-0.0935 0.6189111,-0.0935 z"
       id="rect12-9"
       inkscape:connector-curvature="0" />
    <rect
       style="opacity:0.38000039;fill:#e6e6e6;fill-opacity:1;stroke-width:0.1576042"
       id="rect32"
       width="12.305833"
       height="12.235499"
       x="0.31645927"
       y="282.33896"
       rx="0.7393977"
       ry="1.090397" />
    <rect
       style="opacity:0.6;fill:url(#linearGradient2047);fill-opacity:1;stroke-width:0.14645708"
       id="rect2039"
       width="9.7412319"
       height="1.4273336"
       x="1.5409904"
       y="295.49344"
       rx="0.29810709"
       ry="0.17670295" />
    <text
       xml:space="preserve"
       style="font-style:normal;font-weight:normal;font-size:1.33977437px;line-height:1.25;font-family:sans-serif;letter-spacing:0px;word-spacing:0px;fill:#ffffff;fill-opacity:1;stroke:none;stroke-width:0.25120771;"
       x="4.027338"
       y="282.48279"
       id="text2088"
       transform="scale(0.95221799,1.0501797)"><tspan
         sodipodi:role="line"
         id="tspan2086"
         x="4.027338"
         y="282.48279"
         style="stroke-width:0.25120771;fill:#ffffff;">EVENTS</tspan></text>
    <path
       style="fill:#ececec;stroke-width:0.04390042"
       d="m 4.5516454,293.28375 c -0.030452,-0.0793 0.1001611,-0.62596 0.1656976,-0.69331 0.022318,-0.023 0.040577,-0.31622 0.040577,-0.65173 0,-0.66926 0.042982,-0.8188 0.2611513,-0.90866 0.061596,-0.0254 0.1613901,-0.075 0.2217526,-0.11008 0.060364,-0.0353 0.2227305,-0.11486 0.3608171,-0.17717 0.3194676,-0.14407 0.3555587,-0.24309 0.3630143,-0.99596 0.00304,-0.30721 0.01642,-0.56946 0.029701,-0.58274 0.013247,-0.0137 0.027406,0.0305 0.031372,0.0976 0.00397,0.0671 0.017222,0.28971 0.029473,0.49495 0.016648,0.2789 0.00245,0.44508 -0.056339,0.65795 l -0.078607,0.2848 -0.3067914,0.12318 c -0.1687353,0.0678 -0.334908,0.15115 -0.3692701,0.18533 -0.053985,0.0537 -0.045024,0.07 0.065857,0.11882 0.1828509,0.0807 1.9297871,0.0778 2.0756365,-0.004 0.1248797,-0.0697 0.094821,-0.10188 -0.1912896,-0.20488 -0.1207283,-0.0435 -0.2491341,-0.10229 -0.2853534,-0.13084 -0.036215,-0.0284 -0.09732,-0.0629 -0.135778,-0.0764 -0.1224218,-0.043 -0.1963084,-0.63538 -0.1374436,-1.10172 0.041641,-0.32996 0.039371,-0.40723 -0.014201,-0.48374 -0.035068,-0.0501 -0.063782,-0.068 -0.063782,-0.04 0,0.0281 0.019761,0.0632 0.043894,0.0782 0.054795,0.0338 0.057622,0.18389 0.00413,0.21699 -0.021896,0.0137 -0.030629,-0.011 -0.019424,-0.0534 0.011197,-0.0429 -0.010244,-0.13672 -0.047733,-0.20858 -0.037464,-0.0718 -0.068228,-0.15502 -0.06838,-0.18483 -6.581e-4,-0.13234 0.2915967,-0.50764 0.5713761,-0.7337 0.1679523,-0.13575 0.3013955,-0.26087 0.2965387,-0.27816 -0.016201,-0.0576 0.1014588,-0.23181 0.1403698,-0.20776 0.096637,0.0597 0.5909553,-0.91837 0.7429035,-1.46995 0.1501433,-0.54502 0.2685605,-1.4388 0.2331605,-1.75981 -0.028545,-0.25883 -0.039902,-0.28239 -0.1408036,-0.29186 -0.117505,-0.0109 -0.3590291,-0.0435 -0.6255806,-0.084 -0.090546,-0.0137 -0.164626,-0.0428 -0.164626,-0.0646 0,-0.0367 0.1029464,-0.0307 0.7463081,0.0433 l 0.2414515,0.0279 0.026697,0.17559 c 0.014682,0.0965 0.029499,0.15171 0.032924,0.1225 0.00338,-0.0292 0.091925,-0.10325 0.1966627,-0.16462 0.3813312,-0.22349 0.8694633,-0.0934 1.0731403,0.28581 0.09111,0.16965 0.102441,0.23963 0.08648,0.53413 -0.01513,0.27913 -0.04639,0.39525 -0.177305,0.65851 -0.1968348,0.39581 -0.4311657,0.66463 -1.0330141,1.18503 -1.0283059,0.88917 -1.2544453,1.16058 -1.1528269,1.3836 0.043742,0.096 0.066946,0.10406 0.2236451,0.0775 0.1414693,-0.0239 0.1748434,-0.0165 0.1748434,0.0387 0,0.16025 -0.4133762,0.22083 -0.5414302,0.0793 -0.039675,-0.0439 -0.084592,-0.14198 -0.099806,-0.21807 l -0.027668,-0.13837 -0.2588891,0.19922 c -0.1444774,0.11117 -0.2977799,0.27544 -0.3468948,0.37172 l -0.088006,0.1725 0.09228,0.18088 c 0.083155,0.16301 0.087583,0.20783 0.044796,0.45359 -0.026115,0.14998 -0.047488,0.34889 -0.047488,0.44205 0,0.23609 0.096583,0.6795 0.1480027,0.6795 0.023449,0 0.073814,0.0262 0.111947,0.0585 0.038114,0.0321 0.1666452,0.0944 0.2856126,0.13828 0.2679201,0.099 0.5129501,0.26202 0.5833223,0.38817 0.034156,0.0612 0.054027,0.30858 0.055285,0.68825 0.00177,0.53857 0.011745,0.61267 0.1099389,0.81215 0.067519,0.13727 0.1084917,0.29761 0.1093524,0.42803 l 0.00135,0.20853 H 6.3369737 c -1.5956723,0 -1.7599642,-0.007 -1.7853106,-0.0728 z m 3.4548686,-0.11376 c -3.71e-5,-0.10284 -0.1337031,-0.4886 -0.188181,-0.54308 -0.017205,-0.0172 -0.031287,-0.30363 -0.031287,-0.63651 0,-0.78545 -0.077214,-0.95954 -0.3491771,-0.78732 -0.084879,0.0538 -0.2803946,0.0715 -0.9221505,0.0832 -0.7375412,0.0137 -0.9399771,-0.003 -1.380535,-0.10707 -0.214221,-0.051 -0.2455649,0.0446 -0.2455649,0.74935 0,0.43793 -0.01685,0.64367 -0.05774,0.70498 -0.06984,0.10476 -0.1617597,0.41255 -0.1617597,0.54168 v 0.0937 h 1.6682156 1.6682164 z m -2.8325306,-0.61461 c -0.013517,-0.0543 -0.01885,-0.30621 -0.011745,-0.55973 l 0.012834,-0.46095 1.1523856,-0.0123 1.1523857,-0.0123 v 0.57142 0.57144 H 6.3392696 5.1986952 Z m 2.2179613,-0.47192 v -0.48292 H 6.3214785 5.2510114 l -0.00726,0.48292 -0.00726,0.48289 H 6.314129 7.3917682 Z m -0.84802,-3.16907 c -0.014015,-0.0349 -0.024419,-0.0245 -0.02652,0.0265 -0.00194,0.0463 0.00847,0.0722 0.023052,0.0576 0.014589,-0.0146 0.016142,-0.0524 0.00338,-0.0841 z m 0.9505547,-0.56375 c -0.050121,-0.10052 -0.055546,-0.16394 -0.022166,-0.25966 0.044779,-0.12851 0.026225,-0.19486 -0.042586,-0.15233 -0.063056,0.0389 -0.042257,0.34344 0.030562,0.44741 0.096378,0.13757 0.1122752,0.12113 0.034198,-0.0354 z m -0.053032,-0.51456 c 0.054601,-0.0696 0.053057,-0.0711 -0.01658,-0.0165 -0.073122,0.0574 -0.096378,0.0934 -0.060255,0.0934 0.00915,0 0.043691,-0.0346 0.076818,-0.0769 z m 0.2974921,-0.10802 c 0.086831,-0.10161 0.1512775,-0.20538 0.1432295,-0.23048 -0.00802,-0.0251 5.83e-4,-0.0305 0.019188,-0.0123 0.045505,0.0455 0.3723431,-0.2776 0.3376325,-0.33377 -0.015922,-0.0258 9.281e-4,-0.0333 0.040409,-0.0183 0.042392,0.0163 0.1222446,-0.0302 0.2133654,-0.12428 0.080083,-0.0826 0.129442,-0.15024 0.1096798,-0.15024 -0.019761,0 -0.011332,-0.0296 0.018707,-0.0658 0.06595,-0.0795 0.1504209,-0.0884 0.1039159,-0.0109 -0.021812,0.0363 -0.00751,0.0342 0.042366,-0.007 0.041438,-0.0336 0.064448,-0.072 0.051142,-0.0854 -0.032426,-0.0324 0.4675108,-0.53521 0.507555,-0.51046 0.017264,0.0109 0.058314,-0.0138 0.091229,-0.0543 0.034595,-0.0426 0.03797,-0.0607 0.0081,-0.0428 -0.02852,0.017 -0.065461,0.01 -0.082117,-0.0179 -0.018859,-0.0305 -0.1268466,0.0466 -0.2863121,0.20437 -0.1408221,0.13936 -0.2456265,0.27022 -0.2329006,0.29082 0.012699,0.0206 0.00245,0.032 -0.02279,0.0254 -0.025263,-0.007 -0.2379035,0.16573 -0.4725305,0.38304 -0.2346278,0.21731 -0.4414067,0.39056 -0.4595075,0.38502 -0.018108,-0.005 -0.046281,0.034 -0.062634,0.0878 -0.016344,0.0538 -0.073274,0.15716 -0.1265057,0.22959 -0.2218218,0.30183 -0.1826948,0.33947 0.058879,0.0565 z m 0.3554136,-0.45171 c 0.056702,-0.0603 0.1129849,-0.1098 0.1250577,-0.1098 0.012016,0 -0.024444,0.0494 -0.081146,0.1098 -0.056702,0.0603 -0.1129849,0.1098 -0.1250577,0.1098 -0.012016,0 0.024444,-0.0495 0.081146,-0.1098 z m 0.2219315,-0.18659 c 0.00135,-0.0181 0.065537,-0.0811 0.1426767,-0.13985 l 0.1402475,-0.10694 -0.1289366,0.13986 c -0.1341394,0.14552 -0.1580547,0.16212 -0.1539843,0.10693 z m 0.7840757,-0.81026 c 0.1678071,-0.17886 0.2671059,-0.22891 0.2671059,-0.13465 0,0.0148 -0.013661,0.0137 -0.03025,-0.004 -0.016648,-0.0166 -0.1203596,0.0541 -0.2304781,0.15731 l -0.2002202,0.18757 z m -0.1567983,-0.008 c 0.4848514,-0.50586 0.6434056,-0.82176 0.6434056,-1.28191 0,-0.31575 -0.1316536,-0.47638 -0.390444,-0.47638 -0.1368504,0 -0.2085179,0.0283 -0.2975934,0.11731 -0.1258905,0.12592 -0.1482499,0.27747 -0.084327,0.57164 0.029701,0.13671 0.022698,0.16915 -0.041818,0.1939 -0.05169,0.0198 -0.1031244,-0.002 -0.1545124,-0.0654 -0.1033287,-0.12755 -0.1288,-0.12004 -0.1288,0.0384 0,0.34644 -0.2232064,1.17664 -0.4398693,1.63608 l -0.1202777,0.25506 0.3788513,-0.36054 c 0.2083685,-0.19831 0.4943008,-0.48101 0.6354047,-0.62821 z m 0.5776581,-0.30023 c 0.019761,0.0179 0.022791,0.01 0.00683,-0.0185 -0.024065,-0.042 -0.079147,-0.0471 -0.1960324,-0.0183 -0.00751,0.002 -7.636e-4,0.0241 0.014884,0.0495 0.019711,0.032 0.045345,0.032 0.083458,3.8e-4 0.03025,-0.0252 0.071165,-0.031 0.090929,-0.0137 z m -0.011745,-0.20147 c -0.016403,-0.0428 -0.00726,-0.0546 0.02614,-0.034 0.028241,0.0175 0.051361,0.0218 0.051361,0.01 0,-0.0673 -0.089822,-0.0614 -0.1271199,0.008 -0.032612,0.0609 -0.028655,0.0817 0.015559,0.0817 0.03462,0 0.048796,-0.0273 0.034072,-0.0657 z m 0.090616,-0.16827 c -0.01885,-0.0492 -0.011197,-0.0627 0.023322,-0.0414 0.05974,0.0369 0.06637,-0.0137 0.01283,-0.0979 -0.02786,-0.044 -0.043607,-0.0338 -0.063056,0.0406 -0.01426,0.0545 -0.015829,0.1154 -0.00354,0.13549 0.039236,0.0635 0.059436,0.0391 0.030359,-0.0367 z m 0.078421,-0.28276 c -0.02314,-0.0578 -0.0433,-0.0821 -0.04484,-0.0538 -0.0037,0.0686 0.04742,0.19849 0.06943,0.17648 0.0096,-0.01 -0.0015,-0.0647 -0.0246,-0.12264 z m -0.9585773,-0.18163 c -0.011197,-0.0904 -0.038088,-0.15338 -0.05963,-0.14008 -0.021525,0.0137 -0.040696,-0.0413 -0.042594,-0.12114 l -0.00338,-0.14527 -0.043007,0.11745 c -0.033895,0.0926 -0.023221,0.15622 0.050433,0.30058 0.051378,0.10079 0.099123,0.17629 0.1060887,0.16792 0.007,-0.008 0.00338,-0.0892 -0.00776,-0.17952 z m 1.0831963,-0.14144 c 0.03378,-0.23852 0.02965,-0.32536 -0.02007,-0.4215 -0.0843,-0.16303 -0.2728684,-0.30591 -0.3597281,-0.27259 -0.042813,0.0164 -0.059174,0.01 -0.041902,-0.0188 0.018614,-0.0302 -0.042991,-0.041 -0.1793753,-0.0316 -0.1894805,0.0123 -0.1942319,0.0109 -0.054078,-0.0217 0.1367483,-0.0318 0.1406837,-0.0365 0.035785,-0.0415 -0.064828,-0.003 -0.1734816,0.0152 -0.2414532,0.0408 -0.1572447,0.0593 -0.4094181,0.30074 -0.4073804,0.39005 0.00101,0.0435 0.024309,0.0284 0.064296,-0.0415 0.034511,-0.0603 0.063435,-0.083 0.064296,-0.0504 9.282e-4,0.0362 0.06228,0.005 0.156735,-0.0769 0.2173962,-0.19087 0.4809421,-0.19175 0.6966718,-0.003 0.1939442,0.17029 0.2645052,0.38003 0.2258582,0.67136 -0.0164,0.12359 -0.0191,0.2141 -0.006,0.201 0.01311,-0.0137 0.04295,-0.15899 0.06636,-0.32422 z m -0.198367,-0.56131 -0.083619,-0.0987 0.098781,0.0835 c 0.09283,0.0786 0.118762,0.11391 0.08364,0.11391 -0.0084,0 -0.05279,-0.0444 -0.09878,-0.0987 z m -0.8738365,-0.0329 c 0.0437,-0.0484 0.089331,-0.0878 0.101404,-0.0878 0.012016,0 -0.013804,0.0395 -0.057512,0.0878 -0.043699,0.0483 -0.089331,0.0878 -0.101404,0.0878 -0.012015,0 0.013804,-0.0395 0.057512,-0.0878 z m 0.9742805,0.53861 c -0.0112,-0.0428 -0.02096,-0.0185 -0.02186,0.0541 -9.28e-4,0.0724 0.0082,0.10735 0.02024,0.0777 0.01202,-0.0298 0.0127,-0.089 0.0016,-0.13165 z m -1.0101438,-0.10765 c -0.014015,-0.0349 -0.024419,-0.0246 -0.02652,0.0265 -0.00194,0.0463 0.00847,0.0722 0.023052,0.0576 0.014589,-0.0146 0.016141,-0.0525 0.00338,-0.0841 z m 0.1675624,-0.29907 c 0.0437,-0.0484 0.069578,-0.0878 0.057512,-0.0878 -0.012015,0 -0.057698,0.0395 -0.1014031,0.0878 -0.043699,0.0483 -0.069587,0.0878 -0.057512,0.0878 0.012015,0 0.057698,-0.0395 0.1014031,-0.0878 z m -3.310824,6.48439 c 0.010108,-0.007 0.052863,-0.0389 0.095122,-0.0711 0.065756,-0.0504 0.076818,-0.0486 0.076818,0.0123 0,0.0439 -0.036645,0.0713 -0.095121,0.0713 -0.052323,0 -0.086886,-0.005 -0.076818,-0.0123 z m 1.0439437,-0.15853 c 0.050517,-0.032 0.050517,-0.0417 0,-0.0618 -0.041725,-0.0166 -0.036586,-0.0249 0.016977,-0.0273 0.042257,-0.002 0.076818,0.0262 0.076818,0.0624 0,0.0362 -0.03457,0.0656 -0.076818,0.0651 -0.060119,-5.2e-4 -0.063815,-0.01 -0.016977,-0.0385 z m -0.4738113,-1.88357 c -0.00523,-0.17115 -0.120811,-0.34054 -0.4052515,-0.59391 l -0.2730107,-0.24318 -0.077459,0.17301 c -0.09702,0.21673 -0.2380629,0.27853 -0.4655287,0.204 -0.2199342,-0.0721 -0.224262,-0.18982 -0.00641,-0.17318 0.2056456,0.0157 0.2784454,-0.0689 0.2392475,-0.27776 -0.033169,-0.17686 -0.1853712,-0.33603 -1.1312075,-1.18305 -0.9598516,-0.85956 -1.1796896,-1.19089 -1.2088128,-1.82186 -0.014985,-0.32467 -0.00397,-0.39883 0.084605,-0.57071 0.2020866,-0.39206 0.7577911,-0.51424 1.1115837,-0.24439 0.1472973,0.1124 0.1475403,0.1124 0.1615361,0.0172 0.00768,-0.0524 0.037886,-0.10311 0.067047,-0.11267 0.036325,-0.0123 0.0316,0.0256 -0.014985,0.11895 -0.059546,0.11937 -0.060136,0.14844 -0.00481,0.23353 0.034789,0.0534 0.075443,0.1762 0.090382,0.27278 0.014927,0.0966 0.014943,0.14597 3.97e-5,0.1098 -0.063959,-0.1554 -0.1866141,-0.14682 -0.1939112,0.0137 -0.00413,0.0904 -0.00667,0.0896 -0.043278,-0.0137 -0.032916,-0.0929 -0.036173,-0.0852 -0.021171,0.0497 0.00969,0.0877 -0.00262,0.17981 -0.027507,0.20468 -0.024883,0.0249 -0.035355,0.0717 -0.023288,0.10393 0.012429,0.0332 0.063258,-0.0322 0.1167406,-0.14981 0.101172,-0.22255 0.1420009,-0.2683 0.101609,-0.11389 -0.01696,0.0649 -0.00874,0.0848 0.026056,0.0632 0.03522,-0.0217 0.050821,0.0221 0.050821,0.14293 0,0.40798 0.2272827,1.27159 0.4831984,1.836 0.068903,0.15195 0.1094199,0.28606 0.090041,0.29805 -0.019382,0.0123 -0.220487,-0.15359 -0.4469107,-0.36791 -0.2264246,-0.21434 -0.4296773,-0.37872 -0.4516722,-0.36533 -0.021989,0.0137 0.03727,0.0952 0.1316949,0.18177 0.094425,0.0866 0.1676266,0.1697 0.1626584,0.18476 -0.00489,0.015 0.042662,0.0744 0.1058558,0.13192 0.063191,0.0575 0.1000657,0.075 0.081956,0.0388 -0.018108,-0.0362 0.036536,0.007 0.1214379,0.0947 0.084906,0.0882 0.1688483,0.14754 0.1865475,0.13164 0.017703,-0.0159 0.018808,-0.005 0.00245,0.0231 -0.016336,0.0285 -0.00915,0.0646 0.016057,0.0802 0.02517,0.0155 0.1440218,0.14635 0.2641181,0.29066 0.1669624,0.20062 0.218358,0.29727 0.218358,0.41062 0,0.16844 -0.094629,0.28621 -0.2299541,0.28621 -0.050585,0 -0.079729,0.0123 -0.06476,0.0272 0.014969,0.015 0.076953,0.0148 0.1377508,-5.3e-4 0.1190348,-0.0299 0.2004631,-0.14823 0.2425079,-0.35251 l 0.026402,-0.12824 0.3132397,0.26961 c 0.430197,0.37025 0.5606795,0.56403 0.4937372,0.73322 -0.032595,0.0824 -0.034933,0.0815 -0.037827,-0.0137 z m -1.4957002,-1.64826 c 0,-0.008 -0.04445,-0.0527 -0.098782,-0.0987 l -0.098782,-0.0836 0.083636,0.0987 c 0.078598,0.0929 0.1139266,0.11882 0.113928,0.0836 z m 0.087487,-0.28119 c -0.2281713,-0.46075 -0.4801372,-1.36756 -0.4818349,-1.73406 -8.437e-4,-0.19132 -0.052618,-0.21258 -0.1259048,-0.0517 -0.032502,0.0713 -0.079527,0.10721 -0.1277756,0.0975 -0.065537,-0.0137 -0.074278,-0.0589 -0.06174,-0.32276 0.013517,-0.28553 0.00616,-0.316 -0.104764,-0.42684 -0.2488405,-0.24885 -0.6401131,-0.12496 -0.7054488,0.22325 -0.015787,0.0841 -0.00683,0.24787 0.019981,0.36384 0.102209,0.44281 0.219055,0.60798 0.9676126,1.36784 0.3984144,0.40444 0.7289988,0.73534 0.7346319,0.73534 0.00557,0 -0.046011,-0.11363 -0.1147603,-0.25244 z M 4.187224,286.9341 c 0,-0.007 -0.074076,-0.0814 -0.164626,-0.16462 l -0.1646261,-0.15129 0.1512884,0.16463 c 0.1408154,0.15322 0.1779637,0.18481 0.1779637,0.15128 z m -0.2780273,-0.45909 c -0.059655,-0.0597 -0.079248,-0.0605 -0.1477976,-0.007 -0.07211,0.0567 -0.073747,0.0553 -0.018783,-0.0148 0.05396,-0.0688 0.03997,-0.0946 -0.045066,-0.0835 -0.015787,0.003 -0.052787,-0.0252 -0.082201,-0.0607 -0.039481,-0.0475 -0.040122,-0.0645 -0.00245,-0.0645 0.028081,0 -0.021322,-0.0782 -0.1097617,-0.1738 -0.088443,-0.0956 -0.1806089,-0.16968 -0.2048077,-0.16463 -0.0242,0.005 -0.053977,-0.0183 -0.066153,-0.0518 -0.014859,-0.0408 -0.00354,-0.0495 0.034224,-0.0261 0.037245,0.0229 0.045598,0.0174 0.024613,-0.0165 -0.017466,-0.0283 -0.049167,-0.0407 -0.070431,-0.0274 -0.021263,0.0137 -0.059411,-0.0149 -0.084769,-0.0623 -0.056896,-0.10625 -0.05893,-0.14893 -0.00548,-0.11595 0.022318,0.0138 0.014133,-0.0493 -0.018175,-0.14009 -0.032325,-0.0908 -0.079881,-0.2343 -0.1056786,-0.31882 l -0.046914,-0.15365 0.019255,0.19755 c 0.013517,0.13852 0.00768,0.17133 -0.019626,0.10981 -0.054618,-0.12333 -0.053783,-0.43206 0.00152,-0.57884 0.025617,-0.068 0.105979,-0.18516 0.1785603,-0.26042 0.1023051,-0.10612 0.1175607,-0.14237 0.067832,-0.16145 -0.036536,-0.0141 -0.1086555,0.0243 -0.167586,0.089 -0.056896,0.0625 -0.076194,0.0978 -0.042881,0.0786 0.041683,-0.0241 0.053656,-0.0161 0.038417,0.0258 -0.012159,0.0336 -0.043674,0.0563 -0.069966,0.0505 -0.0276,-0.005 -0.036038,0.0203 -0.019981,0.0621 0.019744,0.0515 0.01161,0.0624 -0.028233,0.0378 -0.042012,-0.026 -0.048197,-0.01 -0.024706,0.0642 0.021356,0.0673 0.015872,0.0892 -0.017247,0.0688 -0.082581,-0.0511 -0.056652,0.37685 0.039987,0.6597 0.048728,0.14261 0.1216438,0.28398 0.1620423,0.31417 0.0404,0.0302 0.054863,0.0554 0.032131,0.0563 -0.022723,7.6e-4 -0.00548,0.0285 0.038434,0.0618 0.043868,0.0332 0.083374,0.077 0.087801,0.0974 0.00439,0.0203 0.024723,0.0314 0.045092,0.0245 0.020377,-0.007 0.027617,0.0137 0.016091,0.044 -0.011475,0.0309 0.098577,0.17865 0.244679,0.32824 0.2275308,0.23297 0.277913,0.26542 0.3512157,0.2262 0.077679,-0.0417 0.07924,-0.0521 0.016808,-0.11458 z m -0.4016004,-0.18522 c -0.093851,-0.0962 -0.1736782,-0.21593 -0.1773849,-0.26626 -0.00658,-0.0882 -0.00304,-0.0878 0.098727,0.0139 0.058002,0.0581 0.1101447,0.13736 0.1158664,0.17635 0.00574,0.0389 0.047024,0.1113 0.091762,0.16078 0.1442597,0.15941 0.047159,0.0956 -0.1289636,-0.0848 z m 0.021128,-0.06 c 0,-0.008 -0.04445,-0.0528 -0.098782,-0.0987 l -0.098781,-0.0835 0.083636,0.0987 c 0.078598,0.0929 0.1139275,0.11882 0.1139275,0.0836 z m -0.5117604,-0.72067 c -0.00591,-0.10037 -6.995e-4,-0.10571 0.037472,-0.0375 0.024512,0.0439 0.0276,0.096 0.007,0.11677 -0.02069,0.0206 -0.040561,-0.0149 -0.044383,-0.0793 z m 0.028857,-1.08067 c 0,-0.01 0.03457,-0.0437 0.076818,-0.0769 0.06962,-0.0546 0.071181,-0.053 0.01658,0.0165 -0.057343,0.0731 -0.093401,0.0964 -0.093401,0.0602 z m 1.0053702,0.0959 c -0.049032,-0.0921 -0.047294,-0.0957 0.019103,-0.041 0.040164,0.0332 0.075333,0.10229 0.078134,0.15364 0.0038,0.0702 0.00997,0.075 0.024664,0.0192 0.026621,-0.10093 -0.097252,-0.27945 -0.2647804,-0.38168 -0.1607598,-0.0981 -0.5844555,-0.11854 -0.5844555,-0.0281 0,0.0376 0.055926,0.0489 0.1792614,0.0365 0.2206219,-0.0223 0.4272025,0.0944 0.5139509,0.29037 0.033101,0.0748 0.066456,0.11718 0.074118,0.0942 0.00768,-0.023 -0.010378,-0.0873 -0.040004,-0.143 z m 1.1957383,3.26814 c -0.059833,-0.0731 -0.089754,-0.0904 -0.075797,-0.044 0.032958,0.1098 0.0038,0.0951 -0.086559,-0.0439 -0.06838,-0.10502 -0.069038,-0.11294 -0.00506,-0.0605 0.043429,0.0356 0.073519,0.0411 0.073519,0.0137 0,-0.0256 -0.019652,-0.0589 -0.043666,-0.0736 -0.024006,-0.0148 -0.066195,-0.0703 -0.093743,-0.12332 -0.027549,-0.053 0.041489,-4.2e-4 0.1534156,0.11676 0.1119192,0.11718 0.2034923,0.2407 0.2034923,0.27437 0,0.0845 -0.012564,0.0786 -0.1256172,-0.0594 z m 2.234675,-0.13165 c 0.00245,-0.044 0.1695689,-0.3479 0.1719214,-0.31267 0.00304,0.0455 -0.1293332,0.3456 -0.1524014,0.3456 -0.011745,0 -0.020529,-0.0149 -0.019517,-0.0329 z m -3.1682697,-0.6585 c -0.054601,-0.0696 -0.053057,-0.0711 0.01658,-0.0165 0.042257,0.0332 0.076818,0.0678 0.076818,0.0769 0,0.036 -0.036055,0.0123 -0.0934,-0.0602 z m 3.8723026,-2.18772 c 0.00203,-0.051 0.012564,-0.0616 0.02652,-0.0265 0.012699,0.0317 0.011062,0.0695 -0.00338,0.0841 -0.014589,0.0146 -0.024968,-0.0109 -0.023052,-0.0576 z m 0.047361,-0.36949 c 0,-0.0603 0.00997,-0.0851 0.022141,-0.0549 0.012159,0.0302 0.012159,0.0797 0,0.10981 -0.012159,0.0302 -0.022141,0.005 -0.022141,-0.0549 z m -3.8037808,-0.34419 c 0.069021,-0.0739 0.770479,-0.13848 1.4481767,-0.13329 0.7564537,0.005 0.7011784,0.0219 -0.2853518,0.0824 -0.4225431,0.026 -0.8670339,0.0587 -0.9877596,0.0728 -0.1566793,0.0183 -0.2067839,0.0123 -0.1750653,-0.022 z"
       id="path44"
       inkscape:connector-curvature="0" />
  </g>
</svg>
