<?xml version="1.0" encoding="UTF-8" standalone="no"?>
<!-- Created with Inkscape (http://www.inkscape.org/) -->

<svg
   xmlns:dc="http://purl.org/dc/elements/1.1/"
   xmlns:cc="http://creativecommons.org/ns#"
   xmlns:rdf="http://www.w3.org/1999/02/22-rdf-syntax-ns#"
   xmlns:svg="http://www.w3.org/2000/svg"
   xmlns="http://www.w3.org/2000/svg"
   xmlns:xlink="http://www.w3.org/1999/xlink"
   xmlns:sodipodi="http://sodipodi.sourceforge.net/DTD/sodipodi-0.dtd"
   xmlns:inkscape="http://www.inkscape.org/namespaces/inkscape"
   width="94.48819"
   height="111.38583"
   viewBox="0 0 25 29.470834"
   version="1.1"
   id="svg8"
   inkscape:version="0.92.3 (2405546, 2018-03-11)"
   sodipodi:docname="FEEDBACK_FINAL.svg">
  <defs
     id="defs2">
    <linearGradient
       inkscape:collect="always"
       id="linearGradient2045">
      <stop
         style="stop-color:#e6e6e6;stop-opacity:1;"
         offset="0"
         id="stop2041" />
      <stop
         style="stop-color:#e6e6e6;stop-opacity:0;"
         offset="1"
         id="stop2043" />
    </linearGradient>
    <linearGradient
       inkscape:collect="always"
       xlink:href="#linearGradient2045"
       id="linearGradient2047"
       x1="74.133888"
       y1="125.01206"
       x2="74.133888"
       y2="126.7159"
       gradientUnits="userSpaceOnUse"
       gradientTransform="matrix(0.814669,0,0,0.814669,-48.560294,191.71612)" />
  </defs>
  <sodipodi:namedview
     id="base"
     pagecolor="#ffffff"
     bordercolor="#666666"
     borderopacity="1.0"
     inkscape:pageopacity="0.0"
     inkscape:pageshadow="2"
     inkscape:zoom="2.8"
     inkscape:cx="162.71975"
     inkscape:cy="35.818926"
     inkscape:document-units="px"
     inkscape:current-layer="layer1"
     showgrid="false"
     inkscape:window-width="1366"
     inkscape:window-height="745"
     inkscape:window-x="-8"
     inkscape:window-y="-8"
     inkscape:window-maximized="1"
     showborder="false"
     units="px" />
  <metadata
     id="metadata5">
    <rdf:RDF>
      <cc:Work
         rdf:about="">
        <dc:format>image/svg+xml</dc:format>
        <dc:type
           rdf:resource="http://purl.org/dc/dcmitype/StillImage" />
        <dc:title />
      </cc:Work>
    </rdf:RDF>
  </metadata>
  <g
     inkscape:label="Layer 1"
     inkscape:groupmode="layer"
     id="layer1"
     transform="translate(0,-267.52916)">
    <path
       style="opacity:1;fill:#000000;fill-opacity:1;stroke-width:0.2155478"
       d="m 57.690068,267.62386 c -1.170277,0 -2.112539,0.94226 -2.112539,2.11257 v 20.71697 c 0,1.17031 0.942262,2.11256 2.112539,2.11256 h 20.71701 c 1.170283,0 2.112544,-0.94225 2.112544,-2.11256 v -20.71697 c 0,-1.17031 -0.942261,-2.11257 -2.112544,-2.11257 z m -0.0088,0.57985 h 20.69091 c 0.836325,0 1.509671,0.67332 1.509671,1.50966 v 20.69091 c 0,0.83634 -0.673346,1.50966 -1.509671,1.50966 H 57.681275 c -0.836325,0 -1.509678,-0.67332 -1.509678,-1.50966 v -20.69091 c 0,-0.83634 0.673353,-1.50966 1.509678,-1.50966 z"
       id="rect12"
       inkscape:connector-curvature="0" />
    <path
       style="opacity:0.38;fill:#000000;fill-opacity:1;stroke-width:0.06649109"
       d="m 4.1385756,293.40237 c -0.9282765,0 -1.6756835,0.11308 -1.6756835,0.25317 v 2.48529 c 0,0.14072 0.747407,0.25317 1.6756835,0.25317 H 20.571533 c 0.928276,0 1.675696,-0.11308 1.675696,-0.25317 v -2.48529 c 0,-0.14072 -0.74742,-0.25317 -1.675696,-0.25317 z m -0.00691,0.0698 H 20.543914 c 0.663389,0 1.197492,0.081 1.197492,0.18093 v 2.48214 c 0,0.10051 -0.534109,0.18093 -1.197492,0.18093 H 4.1316275 c -0.663383,0 -1.1974917,-0.081 -1.1974917,-0.18093 v -2.48214 c 0,-0.10052 0.5341087,-0.18093 1.1974917,-0.18093 z"
       id="rect12-9"
       inkscape:connector-curvature="0" />
    <rect
       style="opacity:0.38000039;fill:#e6e6e6;fill-opacity:1;stroke-width:0.30493852"
       id="rect32"
       width="23.809788"
       height="23.673702"
       x="0.55254322"
       y="268.22116"
       rx="1.4306145"
       ry="2.109741" />
    <rect
       style="opacity:0.6;fill:url(#linearGradient2047);fill-opacity:1;stroke-width:0.28337064"
       id="rect2039"
       width="18.8477"
       height="2.7616584"
       x="2.9218225"
       y="293.50833"
       rx="0.57678878"
       ry="0.3418915" />
    <path
       style="fill:#f2f2f2;fill-opacity:1;stroke-width:0.04101293"
       d="m 17.920457,288.12736 -1.086844,-0.59052 -4.4537,-6.9e-4 -4.4537132,-6.9e-4 -0.1807374,-0.0955 c -0.099384,-0.0503 -0.2361458,-0.17401 -0.3038051,-0.27013 l -0.1230045,-0.17464 -0.011933,-2.08812 c -0.00627,-1.14851 -0.02136,-2.0882 -0.033927,-2.0882 -0.011933,0 -0.3638618,0.1847 -0.7810286,0.41023 -0.7546243,0.40834 -0.9263973,0.46928 -0.9738781,0.34552 -0.01382,-0.0377 -0.025127,-0.30343 -0.025127,-0.59492 v -0.52959 H 4.7427138 c -0.6964196,0 -0.7630863,-0.006 -0.9325036,-0.0923 -0.1066714,-0.0565 -0.2337594,-0.16586 -0.3060041,-0.27014 l -0.1235073,-0.17778 -0.01068,-4.82633 -0.01068,-4.82633 0.092788,-0.18344 c 0.054653,-0.10742 0.1662253,-0.23495 0.2706346,-0.3072 l 0.1777847,-0.12376 6.4670549,-0.0125 6.467074,-0.0126 0.183187,0.0923 c 0.107237,0.0565 0.23445,0.16585 0.306821,0.27014 l 0.123507,0.17779 0.01319,0.79632 0.01319,0.79638 h 0.577267 c 0.701603,0 0.854254,0.0377 1.100539,0.28584 0.27051,0.27014 0.285964,0.35621 0.285964,1.59247 v 1.06916 l 0.714356,0.0125 0.714357,0.0126 0.177659,0.12376 c 0.103782,0.0722 0.216106,0.19977 0.269944,0.30594 l 0.09222,0.18218 v 4.78342 4.78336 l -0.09543,0.18093 c -0.05214,0.0992 -0.173953,0.2362 -0.269945,0.30342 l -0.174518,0.12314 -0.796377,0.0125 -0.796363,0.0125 v 0.52707 c 0,0.29024 -0.01068,0.5566 -0.02513,0.59241 -0.01445,0.0377 -0.06992,0.0634 -0.133245,0.0628 -0.05968,-10e-4 -0.597496,-0.26951 -1.19523,-0.59429 z m 1.072678,-0.86625 c 0.03455,-0.044 0.24425,-0.0565 0.902991,-0.0565 0.933798,0 1.040707,-0.0189 1.13332,-0.22427 0.03707,-0.0817 0.049,-1.26391 0.049,-4.86516 0,-5.17002 0.01068,-4.92539 -0.224461,-5.03263 -0.06904,-0.0314 -0.341875,-0.0503 -0.761825,-0.0503 h -0.654268 v 2.60892 2.60898 l -0.78787,1.62105 c -0.73277,1.50772 -0.853808,1.73375 -0.927347,1.73212 -0.08745,-10e-4 -0.201971,-0.21297 -0.930211,-1.71271 l -0.799648,-1.64687 v -2.60571 -2.60578 h -4.017342 c -3.0273125,0 -4.0438336,0.0126 -4.1248672,0.0503 -0.2353292,0.10743 -0.2244612,-0.13758 -0.2244612,5.03263 0,3.60125 0.011933,4.78374 0.049,4.86516 0.1069218,0.23495 -0.1121367,0.22427 4.7577244,0.22678 l 4.482699,0.002 1.004824,0.5478 1.004818,0.54718 0.01193,-0.49566 c 0.0063,-0.27956 0.03078,-0.51954 0.05654,-0.5497 z m -0.365119,-4.07316 0.435353,-0.90224 h -0.29501 c -0.250595,0 -0.302737,0.0125 -0.346272,0.0823 -0.05717,0.0917 -0.172948,0.10743 -0.247392,0.0314 -0.03518,-0.0377 -0.049,-0.28458 -0.049,-0.8609 0,-0.76731 0.0039,-0.81449 0.08205,-0.86293 0.07275,-0.044 0.08198,-0.0955 0.08198,-0.44163 0,-0.34614 -0.0094,-0.39641 -0.08198,-0.44163 -0.07934,-0.0503 -0.08205,-0.0955 -0.08205,-1.40431 v -1.35306 h -0.902287 -0.90228 l -3.8e-5,2.57355 -2.5e-5,2.57355 0.457906,0.95357 0.457906,0.9535 h 0.478009 0.478009 z M 6.2932735,282.95551 c 0.2255927,-0.12753 0.5439092,-0.30343 0.7074646,-0.39137 l 0.2973347,-0.1602 v -1.45231 -1.45231 l -0.5595511,-0.0126 c -0.4805853,-0.0126 -0.5658963,-0.0189 -0.6047203,-0.0829 -0.032667,-0.0503 -0.032667,-0.0911 0,-0.14386 0.038947,-0.0628 0.1241977,-0.0735 0.6047203,-0.0829 l 0.5595511,-0.0125 v -0.60812 -0.60811 l -0.5415845,-0.0314 c -0.5440972,-0.0314 -0.6477966,-0.0565 -0.6477966,-0.18595 0,-0.14512 0.085186,-0.1671 0.6386809,-0.1671 h 0.5402652 l 0.0201,-0.20669 c 0.022613,-0.23872 0.1740785,-0.45671 0.4011156,-0.57859 0.1354434,-0.0722 0.3260441,-0.076 4.2130436,-0.076 h 4.071174 l 3.58e-4,-1.13807 3.7e-4,-1.13814 0.123131,-0.21485 c 0.168613,-0.294 0.454891,-0.46111 0.79108,-0.46174 l 0.238345,-3.8e-4 -0.01319,-0.77842 -0.01319,-0.77842 -0.113707,-0.11371 -0.11377,-0.11371 H 10.414334 3.9361603 l -0.1137074,0.11371 -0.1137067,0.11371 v 4.83764 4.83769 l 0.1135814,0.11371 0.1135813,0.11371 0.889804,0.0125 c 0.5506932,0.006 0.9098563,0.0314 0.9424483,0.0565 0.037693,0.0314 0.052773,0.18406 0.052773,0.53084 0,0.26762 0.01382,0.48686 0.03078,0.48686 0.01696,-2.4e-4 0.2153527,-0.1049 0.4408824,-0.23244 z m -0.1351918,-6.66574 c -0.065713,-0.066 -0.06282,-0.1759 0.00627,-0.23307 0.040833,-0.0314 1.2128508,-0.044 4.3576153,-0.0377 l 4.301917,0.0125 v 0.14386 0.14323 l -4.308206,0.0125 c -3.3168695,0.006 -4.3195826,-7e-4 -4.3576146,-0.0377 z m 0,-1.5995 c -0.065713,-0.066 -0.06282,-0.1759 0.00627,-0.23307 0.040833,-0.0314 1.2063618,-0.044 4.3326433,-0.0377 4.022129,0.0126 4.279641,0.0126 4.322221,0.0823 0.03329,0.0503 0.03329,0.0911 0,0.14386 -0.04272,0.0672 -0.300349,0.0722 -4.328516,0.0823 -3.2974385,0.006 -4.2946046,-7.1e-4 -4.3326303,-0.0377 z m 12.9516753,1.52549 v -0.49189 h -1.394431 -1.394437 v 0.49189 0.4919 h 1.394437 1.394431 z m -0.0063,-1.30216 c -0.01696,-0.52268 -0.05843,-0.64078 -0.266238,-0.75198 -0.157745,-0.0842 -2.085003,-0.0842 -2.242748,0 -0.207813,0.1112 -0.249527,0.2293 -0.266237,0.75198 l -0.01508,0.48184 h 1.403081 1.403081 z"
       id="path2076"
       inkscape:connector-curvature="0" />
    <text
       xml:space="preserve"
       style="font-style:normal;font-weight:normal;font-size:2.40180612px;line-height:1.25;font-family:sans-serif;letter-spacing:0px;word-spacing:0px;fill:#f2f2f2;fill-opacity:1;stroke:none;stroke-width:0.45033866;"
       x="6.5006871"
       y="281.7446"
       id="text2088"
       transform="scale(0.95221799,1.0501797)"><tspan
         sodipodi:role="line"
         id="tspan2086"
         x="6.5006871"
         y="281.7446"
         style="stroke-width:0.45033866;fill:#f2f2f2;">FEEDBACK</tspan></text>
  </g>
</svg>
