<?xml version="1.0" encoding="UTF-8" standalone="no"?>
<!-- Created with Inkscape (http://www.inkscape.org/) -->

<svg
   xmlns:dc="http://purl.org/dc/elements/1.1/"
   xmlns:cc="http://creativecommons.org/ns#"
   xmlns:rdf="http://www.w3.org/1999/02/22-rdf-syntax-ns#"
   xmlns:svg="http://www.w3.org/2000/svg"
   xmlns="http://www.w3.org/2000/svg"
   xmlns:xlink="http://www.w3.org/1999/xlink"
   xmlns:sodipodi="http://sodipodi.sourceforge.net/DTD/sodipodi-0.dtd"
   xmlns:inkscape="http://www.inkscape.org/namespaces/inkscape"
   width="49"
   height="57"
   viewBox="0 0 12.964583 15.08125"
   version="1.1"
   id="svg8"
   inkscape:version="0.92.3 (2405546, 2018-03-11)"
   sodipodi:docname="GALLERY_FINAL.svg">
  <defs
     id="defs2">
    <linearGradient
       inkscape:collect="always"
       id="linearGradient2045">
      <stop
         style="stop-color:#e6e6e6;stop-opacity:1;"
         offset="0"
         id="stop2041" />
      <stop
         style="stop-color:#e6e6e6;stop-opacity:0;"
         offset="1"
         id="stop2043" />
    </linearGradient>
    <linearGradient
       inkscape:collect="always"
       xlink:href="#linearGradient2045"
       id="linearGradient2047"
       x1="74.133888"
       y1="125.01206"
       x2="74.133888"
       y2="126.7159"
       gradientUnits="userSpaceOnUse"
       gradientTransform="matrix(0.42105291,0,0,0.42105291,-25.06697,242.88301)" />
  </defs>
  <sodipodi:namedview
     id="base"
     pagecolor="#ffffff"
     bordercolor="#666666"
     borderopacity="1.0"
     inkscape:pageopacity="0.0"
     inkscape:pageshadow="2"
     inkscape:zoom="7.9195959"
     inkscape:cx="61.028621"
     inkscape:cy="26.549833"
     inkscape:document-units="px"
     inkscape:current-layer="layer1"
     showgrid="false"
     inkscape:window-width="1366"
     inkscape:window-height="745"
     inkscape:window-x="-8"
     inkscape:window-y="-8"
     inkscape:window-maximized="1"
     showborder="true"
     units="px"
     showguides="false" />
  <metadata
     id="metadata5">
    <rdf:RDF>
      <cc:Work
         rdf:about="">
        <dc:format>image/svg+xml</dc:format>
        <dc:type
           rdf:resource="http://purl.org/dc/dcmitype/StillImage" />
        <dc:title />
      </cc:Work>
    </rdf:RDF>
  </metadata>
  <g
     inkscape:label="Layer 1"
     inkscape:groupmode="layer"
     id="layer1"
     transform="translate(0,-281.91873)">
    <path
       style="opacity:1;fill:#000000;fill-opacity:1;stroke-width:0.11140357"
       d="m -17.390365,282.1151 c -0.604847,0 -1.091845,0.487 -1.091845,1.09186 v 10.70735 c 0,0.60485 0.486998,1.09185 1.091845,1.09185 h 10.7073838 c 0.6048487,0 1.0918454,-0.487 1.0918454,-1.09185 v -10.70735 c 0,-0.60486 -0.4869967,-1.09186 -1.0918454,-1.09186 z m -0.0046,0.29969 h 10.6939508 c 0.4322447,0 0.7802567,0.348 0.7802567,0.78025 v 10.69388 c 0,0.43225 -0.348012,0.78025 -0.7802567,0.78025 H -17.394911 c -0.432246,0 -0.780262,-0.348 -0.780262,-0.78025 v -10.69388 c 0,-0.43225 0.348016,-0.78025 0.780262,-0.78025 z"
       id="rect12"
       inkscape:connector-curvature="0" />
    <path
       style="opacity:0.38;fill:#1a1a1a;fill-opacity:1;stroke-width:0.03436521"
       d="m 2.1698566,295.43845 c -0.4797697,0 -0.8660593,0.0584 -0.8660593,0.13085 v 1.28449 c 0,0.0727 0.3862896,0.13085 0.8660593,0.13085 h 8.4932164 c 0.47977,0 0.866066,-0.0584 0.866066,-0.13085 v -1.28449 c 0,-0.0727 -0.386296,-0.13085 -0.866066,-0.13085 z m -0.00357,0.036 h 8.4825154 c 0.342866,0 0.618911,0.0419 0.618911,0.0935 v 1.28287 c 0,0.0519 -0.276048,0.0935 -0.618911,0.0935 H 2.1662655 c -0.3428624,0 -0.6189111,-0.0419 -0.6189111,-0.0935 v -1.28287 c 0,-0.052 0.2760484,-0.0935 0.6189111,-0.0935 z"
       id="rect12-9"
       inkscape:connector-curvature="0" />
    <rect
       style="opacity:0.38000039;fill:#e6e6e6;fill-opacity:1;stroke-width:0.1576042"
       id="rect32"
       width="12.305833"
       height="12.235499"
       x="0.31645259"
       y="282.42401"
       rx="0.7393977"
       ry="1.090397" />
    <rect
       style="opacity:0.6;fill:url(#linearGradient2047);fill-opacity:1;stroke-width:0.14645708"
       id="rect2039"
       width="9.7412319"
       height="1.4273336"
       x="1.5409904"
       y="295.49344"
       rx="0.29810709"
       ry="0.17670295" />
    <text
       xml:space="preserve"
       style="font-style:normal;font-weight:normal;font-size:1.33977437px;line-height:1.25;font-family:sans-serif;letter-spacing:0px;word-spacing:0px;fill:#f9f9f9;fill-opacity:1;stroke:none;stroke-width:0.25120771;"
       x="3.6380901"
       y="282.53323"
       id="text2088"
       transform="scale(0.95221799,1.0501797)"><tspan
         sodipodi:role="line"
         id="tspan2086"
         x="3.6380901"
         y="282.53323"
         style="stroke-width:0.25120771;fill:#f9f9f9;">GALLERY</tspan></text>
    <path
       style="opacity:0.8;fill:#f9f9f9;stroke-width:0.01860092"
       d="m 5.9816798,293.00616 c -0.7509799,-0.0857 -1.433398,-0.33188 -2.0275012,-0.73134 -0.9670356,-0.65022 -1.6282769,-1.59391 -1.9057459,-2.7198 -0.070465,-0.28593 -0.1300555,-0.7706 -0.1306869,-1.06292 -8.735e-4,-0.41276 0.095347,-0.99806 0.2320073,-1.41101 0.091945,-0.27782 0.1095982,-0.32155 0.2346888,-0.58134 0.3366855,-0.69922 0.8968373,-1.33911 1.564642,-1.78735 0.5351512,-0.3592 1.1946058,-0.61305 1.8465867,-0.71082 0.4384065,-0.0657 1.1787546,-0.0474 1.5531768,0.0384 0.3113437,0.0714 0.5747021,0.14606 0.7161355,0.20307 0.7884788,0.3178 1.3703682,0.73591 1.9065948,1.37 0.3784633,0.44753 0.7191003,1.11337 0.8728433,1.70612 0.07751,0.29884 0.110575,0.49385 0.13183,0.7775 0.01028,0.1371 0.02305,0.27581 0.0284,0.30824 0.01134,0.0688 -0.03693,0.66672 -0.06807,0.84318 -0.0268,0.15188 -0.08712,0.42225 -0.1079,0.48363 -0.0087,0.0256 -0.02664,0.0842 -0.03997,0.1302 -0.175213,0.60546 -0.570446,1.26774 -1.0589093,1.7744 -0.7025843,0.72875 -1.5382304,1.16438 -2.5762634,1.34304 -0.191389,0.0329 -0.963364,0.0506 -1.1718585,0.0268 z m 2.9648614,-2.6238 c 0.1800235,-0.0233 0.3023023,-0.11099 0.3758334,-0.26931 0.03233,-0.0696 0.034582,-0.14 0.034969,-1.0928 l 4.087e-4,-1.01841 h -0.616 -0.6159999 l 0.013233,0.0418 c 0.1231765,0.38962 0.1079324,0.72365 -0.047927,1.05016 -0.1985986,0.41606 -0.567606,0.66018 -1.0398192,0.68791 -0.2553471,0.015 -0.4207391,-0.0159 -0.6301766,-0.11739 -0.2913431,-0.1413 -0.5153602,-0.39606 -0.6304449,-0.71697 -0.065648,-0.18304 -0.081363,-0.55072 -0.0316,-0.73932 0.017787,-0.0674 0.039586,-0.13049 0.048451,-0.14021 0.059295,-0.065 0.04245,-0.066 -1.1071308,-0.066 H 3.5770943 l -0.00739,0.97191 c -0.00406,0.53453 -0.00212,1.00794 0.00437,1.05199 0.015635,0.1063 0.099945,0.22233 0.2117833,0.29148 l 0.090965,0.0562 2.4288848,0.009 c 1.335887,0.005 2.4456268,0.0113 2.4660873,0.0134 0.020464,0.003 0.099086,-0.004 0.174723,-0.014 z m -1.6304755,-1.11157 c 0.3399004,-0.15554 0.5301794,-0.52983 0.4537579,-0.89256 -0.057105,-0.27104 -0.2153769,-0.47401 -0.4581782,-0.58757 -0.1110525,-0.052 -0.1375809,-0.0566 -0.325516,-0.0575 -0.2816734,-10e-4 -0.4105822,0.0487 -0.5977599,0.23233 -0.154366,0.1514 -0.2296958,0.33747 -0.2298774,0.56779 -2.252e-4,0.28536 0.1336342,0.52596 0.382607,0.68771 0.1476224,0.0959 0.2494501,0.12085 0.4636316,0.11354 0.1603959,-0.006 0.2032666,-0.0142 0.311335,-0.0637 z m -1.2633991,-1.57098 c 0.1892759,-0.19363 0.3272311,-0.29165 0.4963416,-0.35268 0.4782262,-0.17258 0.9873637,-0.051 1.3346161,0.31863 0.043479,0.0463 0.079054,0.09 0.079054,0.0971 0,0.007 0.021674,0.0387 0.048158,0.0702 l 0.048158,0.0572 H 8.705573 9.3521517 l 0.012727,-0.30226 c 0.013295,-0.31574 -0.00499,-0.5343 -0.052189,-0.62423 -0.014455,-0.0276 -0.058359,-0.081 -0.097567,-0.11891 -0.1428584,-0.13797 0.073599,-0.12786 -2.7563547,-0.12859 -2.0154327,-4.7e-4 -2.5546536,0.004 -2.5983091,0.023 -0.09279,0.0398 -0.2119018,0.14573 -0.2554893,0.22724 -0.039654,0.0742 -0.041252,0.0952 -0.037764,0.49597 l 0.00362,0.41852 1.0008018,0.0107 c 0.5504409,0.006 1.0662279,0.009 1.1461931,0.006 l 0.1453914,-0.004 z m -1.2582363,-1.05168 c 0.014312,-0.009 0.017257,-0.0362 0.00857,-0.0788 l -0.013245,-0.0649 -0.2231943,-0.005 -0.2231948,-0.005 -0.023695,0.0655 c -0.013033,0.036 -0.018492,0.074 -0.012135,0.0842 0.013382,0.0216 0.453504,0.0255 0.4869002,0.004 z m 2.6013236,-0.008 c 0.02178,-0.0218 -0.2031605,-0.37603 -0.2526206,-0.39783 -0.030795,-0.0136 -0.2616771,-0.0175 -0.7178445,-0.012 l -0.6724451,0.008 -0.1338251,0.18466 c -0.085009,0.11729 -0.1297374,0.19529 -0.1226194,0.21384 0.010026,0.0261 0.1101597,0.0285 0.9488841,0.0227 0.5157233,-0.004 0.943435,-0.0122 0.9504706,-0.0193 z m -1.1815627,-0.19128 v -0.12146 h 0.2426996 0.2426995 l -0.00555,0.11625 -0.00555,0.11626 -0.2371613,0.005 -0.2371619,0.005 z m 2.5394612,0.19124 c 0.00703,-0.007 -0.00693,-0.0637 -0.031026,-0.12597 l -0.043816,-0.11317 -0.2877469,0.005 -0.287747,0.005 -0.042113,0.0744 c -0.023159,0.0409 -0.04225,0.0982 -0.042418,0.12727 l -3.069e-4,0.0528 0.3611925,-0.006 c 0.1986561,-0.004 0.3669467,-0.0122 0.3739792,-0.0191 z"
       id="path2120"
       inkscape:connector-curvature="0" />
  </g>
</svg>
