<?xml version="1.0" encoding="UTF-8" standalone="no"?>
<!-- Created with Inkscape (http://www.inkscape.org/) -->

<svg
   xmlns:dc="http://purl.org/dc/elements/1.1/"
   xmlns:cc="http://creativecommons.org/ns#"
   xmlns:rdf="http://www.w3.org/1999/02/22-rdf-syntax-ns#"
   xmlns:svg="http://www.w3.org/2000/svg"
   xmlns="http://www.w3.org/2000/svg"
   xmlns:sodipodi="http://sodipodi.sourceforge.net/DTD/sodipodi-0.dtd"
   xmlns:inkscape="http://www.inkscape.org/namespaces/inkscape"
   width="100mm"
   height="118mm"
   viewBox="0 0 102.9045 118"
   version="1.1"
   id="svg6709"
   inkscape:version="0.92.3 (2405546, 2018-03-11)"
   sodipodi:docname="sparsh.svg">
  <defs
     id="defs6703">
    <filter
       inkscape:label="Pressed Steel"
       inkscape:menu="Bevels"
       inkscape:menu-tooltip="Pressed metal with a rolled edge"
       style="color-interpolation-filters:sRGB"
       id="filter6736">
      <feColorMatrix
         result="result2"
         type="luminanceToAlpha"
         in="SourceGraphic"
         id="feColorMatrix6726" />
      <feDiffuseLighting
         lighting-color="#ffffff"
         in="result2"
         diffuseConstant="0.5"
         result="result1"
         surfaceScale="15"
         id="feDiffuseLighting6730">
        <feDistantLight
           azimuth="225"
           elevation="10"
           id="feDistantLight6728" />
      </feDiffuseLighting>
      <feComposite
         result="result9"
         operator="arithmetic"
         k2="1"
         k3="0.8"
         in2="SourceGraphic"
         id="feComposite6732"
         k1="0"
         k4="0" />
      <feComposite
         in2="SourceGraphic"
         result="fbSourceGraphic"
         operator="in"
         in="result9"
         id="feComposite6734" />
      <feColorMatrix
         result="fbSourceGraphicAlpha"
         in="fbSourceGraphic"
         values="0 0 0 -1 0 0 0 0 -1 0 0 0 0 -1 0 0 0 0 1 0"
         id="feColorMatrix6814" />
      <feGaussianBlur
         id="feGaussianBlur6816"
         stdDeviation="2"
         result="result1"
         in="fbSourceGraphic" />
      <feOffset
         id="feOffset6818"
         dx="2"
         dy="2" />
      <feConvolveMatrix
         id="feConvolveMatrix6820"
         result="result3"
         order="3 3"
         kernelMatrix="2 0 0 0 8 0 4 0 -4 "
         divisor="2"
         bias="0"
         targetX="0" />
      <feComposite
         in2="result1"
         id="feComposite6822"
         operator="xor"
         result="result2"
         in="result3" />
      <feColorMatrix
         id="feColorMatrix6824"
         values="91.7"
         result="fbSourceGraphic"
         type="hueRotate" />
      <feBlend
         in2="result3"
         id="feBlend6826"
         mode="multiply"
         result="result4"
         in="fbSourceGraphic" />
      <feComposite
         in2="result4"
         id="feComposite6828"
         operator="in"
         result="fbSourceGraphic"
         in="fbSourceGraphic" />
      <feColorMatrix
         result="fbSourceGraphicAlpha"
         in="fbSourceGraphic"
         values="0 0 0 -1 0 0 0 0 -1 0 0 0 0 -1 0 0 0 0 1 0"
         id="feColorMatrix7245" />
      <feConvolveMatrix
         id="feConvolveMatrix7247"
         targetY="1"
         targetX="1"
         in="fbSourceGraphic"
         divisor="1"
         kernelMatrix="0 -0.3 0 -0.3 2.2 -0.3 0 -0.3 0"
         order="3 3"
         result="result1" />
      <feBlend
         in2="fbSourceGraphic"
         id="feBlend7249"
         mode="normal"
         result="fbSourceGraphic" />
      <feColorMatrix
         result="fbSourceGraphicAlpha"
         in="fbSourceGraphic"
         values="0 0 0 -1 0 0 0 0 -1 0 0 0 0 -1 0 0 0 0 1 0"
         id="feColorMatrix7395" />
      <feGaussianBlur
         id="feGaussianBlur7397"
         result="result1"
         stdDeviation="3"
         in="fbSourceGraphic" />
      <feBlend
         in2="result1"
         id="feBlend7399"
         result="result5"
         mode="multiply"
         in="result1" />
      <feGaussianBlur
         id="feGaussianBlur7401"
         in="result5"
         result="result6"
         stdDeviation="1" />
      <feComposite
         in2="result5"
         id="feComposite7403"
         result="result8"
         in="result6"
         operator="xor" />
      <feComposite
         in2="result8"
         id="feComposite7405"
         in="result6"
         result="fbSourceGraphic"
         operator="xor" />
      <feSpecularLighting
         id="feSpecularLighting7407"
         in="fbSourceGraphic"
         result="result1"
         lighting-color="#ffffff"
         surfaceScale="2"
         specularConstant="2.20000005"
         specularExponent="55">
        <fePointLight
           id="fePointLight7409"
           x="-5000"
           y="-10000"
           z="20000" />
      </feSpecularLighting>
      <feComposite
         in2="fbSourceGraphic"
         id="feComposite7411"
         in="result1"
         result="result2"
         operator="in" />
      <feComposite
         in2="result2"
         id="feComposite7413"
         in="fbSourceGraphic"
         result="result4"
         operator="arithmetic"
         k2="2"
         k3="1"
         k1="0"
         k4="0" />
      <feComposite
         in2="result4"
         id="feComposite7415"
         in="result4"
         operator="in"
         result="result91" />
      <feBlend
         in2="result91"
         id="feBlend7417"
         mode="darken" />
    </filter>
    <filter
       style="color-interpolation-filters:sRGB"
       x="-0.25"
       width="1.5"
       y="-0.25"
       height="1.5"
       inkscape:menu="Non-realistic 3D Shaders"
       inkscape:menu-tooltip="Embossed chrome effect"
       inkscape:label="Chrome Emboss"
       id="filter7161">
      <feGaussianBlur
         in="SourceGraphic"
         result="result8"
         stdDeviation="5"
         id="feGaussianBlur7141" />
      <feComposite
         result="result18"
         operator="xor"
         in2="result8"
         id="feComposite7143" />
      <feComposite
         in2="result18"
         result="result16"
         operator="arithmetic"
         k1="1"
         k3="0.5"
         id="feComposite7145"
         k2="0"
         k4="0" />
      <feComposite
         in="result16"
         operator="xor"
         result="result6"
         in2="result8"
         id="feComposite7147" />
      <feOffset
         in="result6"
         result="result17"
         id="feOffset7149" />
      <feDisplacementMap
         result="result4"
         scale="100"
         yChannelSelector="A"
         xChannelSelector="A"
         in="result17"
         in2="result16"
         id="feDisplacementMap7151" />
      <feComposite
         k3="1"
         in="result4"
         operator="arithmetic"
         result="result2"
         in2="result4"
         id="feComposite7153"
         k1="0"
         k2="0"
         k4="0" />
      <feComposite
         operator="in"
         in="result6"
         result="fbSourceGraphic"
         in2="result2"
         id="feComposite7155" />
      <feComposite
         result="result14"
         operator="over"
         in2="fbSourceGraphic"
         id="feComposite7157" />
      <feComposite
         in="result14"
         operator="in"
         in2="result2"
         result="result15"
         id="feComposite7159" />
    </filter>
    <filter
       inkscape:label="Dots Transparency"
       inkscape:menu="Overlays"
       inkscape:menu-tooltip="Gives a pointillist HSL sensitive transparency"
       style="color-interpolation-filters:sRGB"
       id="filter7217">
      <feTurbulence
         result="result1"
         numOctaves="3"
         baseFrequency="1"
         type="fractalNoise"
         seed="50"
         id="feTurbulence7205" />
      <feColorMatrix
         result="result0"
         in="SourceGraphic"
         type="luminanceToAlpha"
         id="feColorMatrix7207" />
      <feColorMatrix
         values="1 0 0 0 0 0 1 0 0 0 0 0 1 0 0 0 0 0 0.7 0 "
         result="result2"
         id="feColorMatrix7209" />
      <feComposite
         in="result1"
         operator="over"
         in2="result2"
         result="result3"
         id="feComposite7211" />
      <feColorMatrix
         values="1 0 0 0 0 0 1 0 0 0 0 0 1 0 0 0 0 0 5 -3.2 "
         result="result91"
         id="feColorMatrix7213" />
      <feComposite
         operator="out"
         in="SourceGraphic"
         result="result4"
         in2="result91"
         id="feComposite7215" />
    </filter>
  </defs>
  <sodipodi:namedview
     id="base"
     pagecolor="#ffffff"
     bordercolor="#666666"
     borderopacity="1.0"
     inkscape:pageopacity="0.0"
     inkscape:pageshadow="2"
     inkscape:zoom="0.49497475"
     inkscape:cx="41.681312"
     inkscape:cy="-213.26952"
     inkscape:document-units="px"
     inkscape:current-layer="layer1"
     showgrid="false"
     inkscape:window-width="1920"
     inkscape:window-height="1051"
     inkscape:window-x="-9"
     inkscape:window-y="-9"
     inkscape:window-maximized="1"
     showborder="true"
     viewbox-width="216.1" />
  <metadata
     id="metadata6706">
    <rdf:RDF>
      <cc:Work
         rdf:about="">
        <dc:format>image/svg+xml</dc:format>
        <dc:type
           rdf:resource="http://purl.org/dc/dcmitype/StillImage" />
        <dc:title></dc:title>
      </cc:Work>
    </rdf:RDF>
  </metadata>
  <g
     inkscape:label="Layer 1"
     inkscape:groupmode="layer"
     id="layer1"
     transform="translate(0,-184.19865)">
    <rect
       style="fill:#f2f2f2;fill-opacity:1;stroke-width:0.26561752;filter:url(#filter6736)"
       id="rect6724"
       width="103.16604"
       height="62.808338"
       x="36.348656"
       y="35.610401"
       ry="9.6217031"
       transform="matrix(0.72009381,-0.00226043,0.00162773,0.99999745,-12.665289,164.39473)" />
    <path
       style="fill:#000000;stroke-width:0.26458335"
       d="m 43.218637,255.86821 c -0.47295,-0.0686 -0.8599,-0.23621 -0.8599,-0.37251 0,-0.1363 0.10581,-0.24782 0.23514,-0.24782 0.12933,0 0.31665,-0.44649 0.41627,-0.9922 0.0996,-0.5457 0.41054,-1.38595 0.69091,-1.8672 0.41857,-0.71848 0.50977,-1.39077 0.50977,-3.75789 0,-1.58557 0.134,-3.17696 0.29778,-3.53642 0.31373,-0.68857 1.60307,-1.2094 1.76813,-0.71424 0.11964,0.35895 0.8445,0.37609 0.8445,0.02 0,-0.14552 0.23813,-0.26458 0.52917,-0.26458 0.29104,0 0.52917,-0.0987 0.52917,-0.21945 0,-0.12069 0.26586,-0.20999 0.5908,-0.19844 0.61785,0.022 0.83728,-0.60439 0.34409,-0.98222 -0.15735,-0.12054 -0.0592,-0.1767 0.23132,-0.13229 0.74115,0.11332 0.96812,-1.00761 0.92189,-4.55305 -0.0297,-2.2806 0.0664,-3.28467 0.38391,-4.00867 0.37208,-0.84853 0.37623,-1.00525 0.0341,-1.28918 -0.2142,-0.17778 -0.38946,-0.23067 -0.38946,-0.11753 0,0.11313 -0.23812,-0.01 -0.52916,-0.27321 -0.29105,-0.26339 -0.52917,-0.61827 -0.52917,-0.78863 0,-0.35712 -1.00254,-1.31635 -1.5875,-1.51892 -0.29254,-0.10131 -0.40493,0.0749 -0.42749,0.67019 -0.052,1.3734 -1.51488,2.16477 -2.76491,1.49576 -0.8471,-0.45335 -0.64504,-1.09628 0.31423,-0.9998 0.54408,0.0547 0.92066,-0.0643 1.10339,-0.34867 0.55609,-0.8655 -0.37173,-2.08514 -4.32221,-5.68169 -5.69511,-5.18484 -7.19375,-7.36947 -7.24095,-10.55542 -0.0296,-1.9988 0.44911,-3.14744 1.61107,-3.86558 1.23226,-0.76158 3.48686,-0.61191 4.45286,0.29559 0.52504,0.49326 0.65943,0.53286 0.65943,0.19434 0,-0.23385 0.22135,-0.49542 0.49189,-0.58129 1.13886,-0.36146 1.23899,-0.0689 1.70926,4.99416 0.24808,2.67093 0.68796,5.7825 0.9775,6.91462 0.55156,2.15658 2.02311,5.15925 2.62713,5.36059 0.23438,0.0781 0.2816,0.002 0.14028,-0.22689 -0.1332,-0.21553 0.0151,-0.18488 0.39584,0.0818 0.63737,0.44643 2.07732,2.73049 1.51948,2.4102 -0.18537,-0.10643 -0.2277,-0.0825 -0.10027,0.0567 0.12126,0.13247 0.35939,0.24627 0.52916,0.25289 0.16978,0.007 0.27892,0.15544 0.24254,0.33073 -0.0364,0.17529 0.0529,0.31871 0.19844,0.31871 0.34234,0 0.34234,-0.44989 0,-0.66147 -0.14553,-0.0899 -0.26459,-0.28258 -0.26459,-0.42811 0,-0.14552 0.11906,-0.19099 0.26459,-0.10106 0.16022,0.099 0.26458,-0.27139 0.26458,-0.93911 0,-1.07632 0.0174,-1.09773 0.7276,-0.89709 0.74925,0.21166 1.39386,0.23247 2.31511,0.0747 0.45459,-0.0778 0.54781,0.0889 0.66145,1.1834 l 0.1323,1.27401 1.02586,-1.37838 c 0.56422,-0.75812 1.36242,-2.10533 1.77379,-2.99382 0.41137,-0.88848 0.75079,-1.43683 0.75427,-1.21854 0.003,0.21828 -0.2313,0.92062 -0.52173,1.56076 -0.29043,0.64013 -0.46442,1.22751 -0.38665,1.30528 0.43614,0.43614 1.98466,-2.76934 1.98466,-4.10833 0,-0.56822 0.10443,-1.14626 0.23207,-1.2845 0.12763,-0.13825 0.43452,-0.9062 0.68199,-1.70657 0.24746,-0.80037 0.52284,-1.63381 0.61196,-1.8521 0.679,-1.66316 0.86249,-8.46671 0.22834,-8.46671 -0.2461,0 -0.4227,1.0983 -0.64879,4.03492 -0.30571,3.97062 -0.80506,6.56133 -1.51669,7.86879 -0.53959,0.99139 -0.48378,0.0963 0.13274,-2.12843 0.66044,-2.3833 1.15868,-6.66552 1.01753,-8.74534 l -0.10996,-1.62021 1.43302,0.16842 c 1.66482,0.19567 2.43571,0.54398 2.43571,1.10055 0,0.30925 0.17139,0.26877 0.7861,-0.1857 1.031044,-0.76229 2.922882,-0.79026 3.904029,-0.0577 1.426711,1.0652 1.793258,1.84599 1.777658,3.78654 -0.0273,3.39591 -1.668121,5.63651 -8.601437,11.74556 -2.52244,2.22255 -3.46804,3.59859 -2.98477,4.34345 0.19733,0.30415 0.57553,0.43642 1.12063,0.39193 0.53429,-0.0436 0.82279,0.0538 0.82279,0.27781 0,1.02774 -1.76771,1.32893 -2.64583,0.4508 -0.3039,-0.30391 -0.53434,-0.89522 -0.54132,-1.38907 l -0.0121,-0.8599 -1.46275,1.58751 c -1.70516,1.85057 -2.00271,2.442 -1.59738,3.17502 0.16752,0.30296 0.29554,1.90607 0.29946,3.75012 0.008,3.75193 0.28755,4.38174 2.27115,5.11655 3.37298,1.2495 3.42425,1.33107 3.42425,5.44794 0,2.732 0.27152,3.89739 1.0551,4.52863 0.22006,0.17727 0.2779,0.32611 0.12853,0.33074 -0.15648,0.005 -0.2288,0.45696 -0.17065,1.06675 l 0.10093,1.05834 -3.13664,0.003 c -1.72516,0.002 -5.45837,0.0501 -8.29602,0.10792 -2.83766,0.0578 -5.54633,0.049 -6.01927,-0.0196 z m 16.6026,-0.88492 c 0,-0.17074 -2.88567,-0.26315 -8.13594,-0.26053 -5.3506,0.003 -8.00006,0.0919 -7.73906,0.26053 0.54528,0.35239 15.875,0.35239 15.875,0 z m -12.10469,-0.98048 c -0.32742,-0.0631 -0.8632,-0.0631 -1.19062,0 -0.32742,0.0631 -0.0595,0.11467 0.59531,0.11467 0.65485,0 0.92274,-0.0516 0.59531,-0.11467 z m 8.73125,0 c -0.32742,-0.0631 -0.8632,-0.0631 -1.19062,0 -0.32742,0.0631 -0.0595,0.11467 0.59531,0.11467 0.65485,0 0.92274,-0.0516 0.59531,-0.11467 z m 3.37344,-0.18184 c 0,-0.0572 -0.17859,-0.17252 -0.39687,-0.25629 -0.21828,-0.0838 -0.39688,-0.037 -0.39688,0.10399 0,0.14096 0.1786,0.25629 0.39688,0.25629 0.21828,0 0.39687,-0.0468 0.39687,-0.10399 z m -12.10105,-0.34686 c -0.32542,-0.0628 -0.92073,-0.0644 -1.32291,-0.004 -0.40219,0.0608 -0.13593,0.11219 0.59167,0.11418 0.7276,0.002 1.05666,-0.0478 0.73124,-0.11057 z m 1.98074,0.004 c -0.25466,-0.0666 -0.67138,-0.0666 -0.92604,0 -0.25466,0.0666 -0.0463,0.121 0.46302,0.121 0.50932,0 0.71768,-0.0545 0.46302,-0.121 z m 2.24896,-0.004 c -0.32742,-0.0631 -0.86321,-0.0631 -1.19063,0 -0.32742,0.0631 -0.0595,0.11466 0.59532,0.11466 0.65484,0 0.92273,-0.0516 0.59531,-0.11466 z m 5.68854,-0.006 c -0.5457,-0.0571 -1.43867,-0.0571 -1.98438,0 -0.5457,0.0571 -0.0992,0.10379 0.99219,0.10379 1.09141,0 1.53789,-0.0467 0.99219,-0.10379 z m 1.12448,-0.73735 c 0.0728,-0.042 0.0953,-1.4572 0.0501,-3.14499 l -0.0822,-3.06871 -5.60638,0.0598 -5.60637,0.0598 4.88776,0.0787 c 2.68827,0.0433 4.98921,0.18016 5.11322,0.30417 0.27195,0.27195 0.3368,4.85952 0.0747,5.28362 -0.12813,0.20732 -1.88468,0.29937 -5.71252,0.29937 -4.85071,0 -5.55725,-0.0532 -5.77062,-0.43445 -0.13372,-0.23895 -0.18528,-0.65566 -0.11458,-0.92605 0.0787,-0.30103 -0.0116,-0.49316 -0.23303,-0.49564 -0.25617,-0.003 -0.27224,-0.0609 -0.0551,-0.19904 0.17064,-0.10859 0.34652,-1.04506 0.39687,-2.11322 0.0867,-1.83983 0.0661,-1.91822 -0.50488,-1.91764 -0.5642,5.3e-4 -0.59647,0.10775 -0.61736,2.05113 -0.0121,1.12779 -0.0553,2.34819 -0.096,2.71199 -0.0407,0.36381 0.0585,0.74894 0.22048,0.85586 0.19348,0.12772 0.15836,0.19716 -0.10242,0.20249 -0.35278,0.007 -0.35278,0.0375 0,0.27279 0.34583,0.23066 13.36948,0.34427 13.75833,0.12002 z m -1.85209,-3.17097 v -2.24897 h -5.02708 -5.02708 v 2.24897 2.24898 h 5.02708 5.02708 z m -9.3927,-3.30731 c 0.37711,-0.16205 0.11101,-0.22374 -0.92604,-0.21468 -1.20052,0.0105 -1.31629,0.048 -0.66146,0.21468 1.0338,0.26305 0.97533,0.26305 1.5875,0 z m 4.16718,-0.17523 c -0.1819,-0.0734 -0.47955,-0.0734 -0.66145,0 -0.18191,0.0734 -0.0331,0.13345 0.33073,0.13345 0.3638,0 0.51263,-0.0601 0.33072,-0.13345 z m 5.22552,-1.52406 c 0,-0.20699 -0.44648,-0.52016 -0.99218,-0.69593 -0.54571,-0.17577 -1.12711,-0.42617 -1.29202,-0.55644 -0.19059,-0.15056 -0.35428,-0.0949 -0.44929,0.15262 -0.11262,0.29348 0.14061,0.43297 1.02744,0.56596 0.74203,0.11127 1.17689,0.31203 1.17689,0.54332 0,0.20177 0.11906,0.36684 0.26458,0.36684 0.14552,0 0.26458,-0.16936 0.26458,-0.37637 z m -3.9661,-1.10795 c 0.17033,-0.17033 0.017,-0.25581 -0.4446,-0.24776 -0.38756,0.007 -0.75451,0.16191 -0.81545,0.34481 -0.12873,0.3863 0.85225,0.31075 1.26005,-0.097 z m -0.0774,-2.94384 c -0.0608,-0.40218 -0.1122,-0.13593 -0.11418,0.59167 -0.002,0.72762 0.0478,1.05668 0.11057,0.73126 0.0628,-0.32543 0.0644,-0.92075 0.004,-1.32293 z m -0.69376,0.26094 c 0.13853,-3.99014 0.10221,-4.564 -0.2886,-4.56003 -0.33627,0.003 -0.34008,0.0408 -0.0245,0.24056 0.29158,0.18457 0.24408,0.25631 -0.21628,0.32668 -0.55393,0.0847 -0.59285,0.23141 -0.63821,2.40554 -0.0467,2.23911 -0.0287,2.31536 0.54702,2.31512 0.46685,-2e-4 0.60076,-0.15727 0.62057,-0.72787 z m -0.77724,-0.59531 c 0,-0.3638 0.0601,-0.51263 0.13345,-0.33073 0.0734,0.1819 0.0734,0.47956 0,0.66146 -0.0734,0.1819 -0.13345,0.0331 -0.13345,-0.33073 z m 1.46827,-3.23808 c -0.0633,-0.32912 -0.11747,-0.12215 -0.12041,0.45994 -0.003,0.58209 0.0489,0.85137 0.11507,0.5984 0.0662,-0.25297 0.0686,-0.72922 0.005,-1.05834 z m -0.78795,-1.41972 c -0.0879,-0.0879 -0.31613,-0.0973 -0.50712,-0.0209 -0.21107,0.0845 -0.14837,0.14715 0.15985,0.15985 0.27892,0.0115 0.43519,-0.0511 0.34727,-0.13897 z m 0,-1.58751 c -0.0879,-0.0879 -0.31613,-0.0973 -0.50712,-0.0209 -0.21107,0.0845 -0.14837,0.14716 0.15985,0.15986 0.27892,0.0115 0.43519,-0.0511 0.34727,-0.13898 z m 0.74399,-0.35171 c -0.0959,-0.1552 -0.37573,-0.26837 -0.6218,-0.25149 -0.40336,0.0277 -0.40182,0.0426 0.0156,0.15169 0.25466,0.0666 0.46302,0.25117 0.46302,0.41028 0,0.15911 0.0714,0.21783 0.15878,0.13049 0.0873,-0.0873 0.0803,-0.28577 -0.0156,-0.44097 z m 0.25371,-0.54677 c -0.0899,-0.14552 -0.0502,-0.26458 0.0884,-0.26458 0.13855,0 0.32929,-0.20169 0.42388,-0.4482 0.15213,-0.39644 0.11031,-0.39236 -0.36233,0.0354 -0.46187,0.418 -0.52789,0.942 -0.11868,0.942 0.0728,0 0.0587,-0.11906 -0.0312,-0.26458 z m -0.5347,-1.19063 c -0.0847,-0.75642 -0.0876,-0.75875 -0.51205,-0.4065 -0.2119,0.17587 -0.50133,0.24804 -0.64317,0.16037 -0.29063,-0.17961 -0.65634,0.27151 -0.46763,0.57686 0.0675,0.10914 0.47351,0.19843 0.90236,0.19843 0.62307,0 0.76782,-0.10631 0.72049,-0.52916 z m -6.17843,-0.33073 c 0.32911,-0.41965 0.31975,-0.42901 -0.0999,-0.0999 -0.25467,0.19972 -0.46302,0.40808 -0.46302,0.46302 0,0.21776 0.21727,0.0776 0.56291,-0.36312 z m 11.17005,-0.20985 c -0.0862,-0.22456 -0.21342,-0.35154 -0.28277,-0.28219 -0.0693,0.0694 -0.0476,0.25309 0.0483,0.40829 0.26089,0.42213 0.41338,0.34012 0.23447,-0.1261 z m -1.94338,-1.09298 c 0,-0.0646 -0.11906,-0.0439 -0.26459,0.0461 -0.14552,0.0899 -0.26458,0.0513 -0.26458,-0.0858 0,-0.13714 0.25011,-0.31475 0.55579,-0.39468 0.35599,-0.0931 0.48347,-0.26237 0.35461,-0.47087 -0.14235,-0.23031 -0.42097,-0.0795 -0.95267,0.51554 -0.92853,1.03921 -0.97457,1.52025 -0.09,0.94066 0.3638,-0.23837 0.66146,-0.48627 0.66146,-0.55088 z m -8.82061,-0.15239 c -0.0734,-0.1819 -0.13345,-0.0331 -0.13345,0.33073 0,0.3638 0.0601,0.51264 0.13345,0.33073 0.0734,-0.1819 0.0734,-0.47956 0,-0.66146 z m 10.87607,-1.14159 c -0.0603,-0.0603 -0.33915,0.0765 -0.61957,0.30405 -0.28042,0.22757 -0.36102,0.33837 -0.17912,0.24623 0.1819,-0.0921 0.33435,-0.0117 0.33877,0.17882 0.005,0.20485 0.12276,0.14908 0.28884,-0.13652 0.15443,-0.26558 0.23142,-0.53224 0.17108,-0.59258 z m -9.72838,0.57867 c 0,-0.0549 -0.20836,-0.2633 -0.46302,-0.46302 -0.41964,-0.32912 -0.429,-0.31976 -0.0999,0.0999 0.34565,0.44073 0.56292,0.58088 0.56292,0.36312 z m -1.05833,-0.26867 c 0,-0.0572 -0.18478,-0.17489 -0.41062,-0.26155 -0.23546,-0.0904 -0.34166,-0.046 -0.24897,0.10398 0.15538,0.25141 0.65959,0.37186 0.65959,0.15757 z m 17.1364,-6.19449 c 1.338171,-1.20858 2.421125,-2.28014 2.406565,-2.38126 -0.0683,-0.47462 0.0538,-0.91587 0.21029,-0.75943 0.296817,0.29682 0.861894,-0.36542 0.691254,-0.8101 -0.0992,-0.25846 -0.0536,-0.35422 0.11814,-0.24809 0.15905,0.0983 0.26403,-0.0256 0.2434,-0.28732 -0.0199,-0.2531 0.108267,-0.43185 0.284937,-0.39722 0.19804,0.0388 0.25689,-0.10462 0.15347,-0.37413 -0.1217,-0.31714 -0.0713,-0.37753 0.183487,-0.22003 0.26349,0.16284 0.31393,0.0744 0.20193,-0.35384 -0.0821,-0.314 -0.0413,-0.50418 0.0906,-0.42263 0.309237,0.19112 0.301427,-0.16974 -0.0145,-0.66931 -0.20603,-0.32578 -0.27431,-0.30415 -0.417627,0.13229 -0.927127,2.82351 -2.492968,4.76885 -7.422406,9.2213 -0.74116,0.66945 -1.44486,1.12906 -1.56377,1.02135 -0.11891,-0.10771 -0.13056,-0.047 -0.0259,0.13489 0.10468,0.18191 0.094,0.33166 -0.0237,0.3328 -0.11773,0.001 -0.35868,0.31364 -0.53545,0.69445 -0.23581,0.50799 0.11902,0.27844 1.33241,-0.86197 0.90959,-0.85489 2.74867,-2.54317 4.08685,-3.75175 z m 0.722974,-1.1099 c 0.716667,-0.72761 1.362554,-1.32293 1.435311,-1.32293 0.0728,0 -0.454067,0.59532 -1.170721,1.32293 -0.716674,0.7276 -1.362564,1.32292 -1.435324,1.32292 -0.0728,0 0.45407,-0.59532 1.170734,-1.32292 z m -19.632164,5.49013 c -0.11637,-0.1819 -1.10456,-1.16389 -2.19596,-2.18221 -2.90434,-2.70983 -4.26317,-4.08691 -5.35268,-5.42461 -1.00203,-1.23026 -1.23187,-0.9809 -0.33781,0.36648 0.417,0.62844 7.75887,7.55753 8.01874,7.56791 0.0436,0.002 -0.0159,-0.14566 -0.13229,-0.32757 z m 14.2885,-2.44741 c 0.0286,-0.14552 0.15128,-0.33731 0.27262,-0.4262 0.12134,-0.0889 0.032,-0.23398 -0.19844,-0.32243 -0.37967,-0.14569 -0.51019,0.19993 -0.39646,1.04978 0.0124,0.0929 -0.0972,0.24289 -0.24361,0.33339 -0.14641,0.0905 -0.34729,0.52051 -0.44641,0.95562 -0.16005,0.7026 -0.11641,0.67271 0.39005,-0.26723 0.31364,-0.58209 0.59366,-1.17741 0.62225,-1.32293 z m -15.81081,-0.46302 c -0.4255,-1.02295 -1.13135,-4.48297 -1.35013,-6.6182 -0.0863,-0.84234 -0.26695,-1.45651 -0.40358,-1.37207 -0.13603,0.0841 -0.34854,-0.12072 -0.47224,-0.45511 l -0.2249,-0.60796 -0.18756,0.59097 c -0.10887,0.343 -0.40212,0.59097 -0.6989,0.59097 -0.58254,0 -0.61971,-0.26065 -0.23481,-1.64655 0.21598,-0.77766 0.18723,-1.15205 -0.13651,-1.77809 -0.62567,-1.20994 -1.3744,-1.5059 -2.40522,-0.95077 -1.62311,0.87411 -1.89629,2.92712 -0.71646,5.38426 0.52351,1.09028 1.5822,2.36095 3.84389,4.61358 1.71676,1.70988 3.17149,3.10886 3.23274,3.10886 0.0612,0 -0.0496,-0.38695 -0.24632,-0.85989 z m 18.60722,-1.03216 c 3.944008,-3.66057 5.589946,-6.14274 5.589946,-8.42998 0,-1.6175 -0.808964,-2.64262 -2.085428,-2.64262 -1.244528,0 -1.938978,1.08861 -1.834788,2.87615 0.10039,1.72208 -0.38815,2.11854 -0.96728,0.78496 l -0.38344,-0.88296 -0.0103,1.22284 c -0.0122,1.44356 -1.0701,5.77886 -1.82848,7.4933 -0.29336,0.66318 -0.46595,1.20578 -0.38354,1.20578 0.0824,0 0.93893,-0.73236 1.90336,-1.62747 z m -2.39189,-0.23813 c -0.15478,-0.44399 -0.33051,-0.75816 -0.39052,-0.69815 -0.13102,0.13102 0.36823,1.50542 0.54685,1.50542 0.0688,0 -0.002,-0.36327 -0.15633,-0.80727 z m 0.22074,-1.43007 c 0,-0.21188 -0.10116,-0.32272 -0.2248,-0.2463 -0.12364,0.0764 -0.1563,0.24977 -0.0726,0.38524 0.21395,0.34618 0.29738,0.3072 0.29738,-0.13894 z m 0.30003,-2.3929 c 0,-0.41901 -0.0441,-0.39147 -0.21184,0.13229 -0.1165,0.3638 -0.21183,0.89959 -0.21183,1.19064 0,0.41901 0.0441,0.39147 0.21183,-0.1323 0.11651,-0.36381 0.21184,-0.89959 0.21184,-1.19063 z m -24.07299,-1.58863 c -0.16604,-0.36442 -0.33735,-0.62711 -0.3807,-0.58376 -0.16099,0.16099 0.23484,1.24635 0.45454,1.24635 0.12543,0 0.0922,-0.29816 -0.0738,-0.66259 z m 24.83564,0.0838 c -0.0845,-0.21107 -0.14715,-0.14837 -0.15985,0.15985 -0.0115,0.27893 0.0511,0.4352 0.13897,0.34728 0.0879,-0.0879 0.0973,-0.31613 0.0209,-0.50713 z m 0.70069,-0.41341 c 0.094,-0.4941 0.0539,-0.8599 -0.0943,-0.8599 -0.14188,0 -0.25797,0.43657 -0.25797,0.97014 0,1.13396 0.12274,1.09555 0.35226,-0.11024 z m -26.01684,-0.8599 c 0,-0.14553 -0.0525,-0.26459 -0.11668,-0.26459 -0.0642,0 -0.19026,0.11906 -0.2802,0.26459 -0.0899,0.14552 -0.0374,0.26459 0.11668,0.26459 0.15411,0 0.2802,-0.11907 0.2802,-0.26459 z m 25.31618,-0.84385 c -0.0845,-0.21106 -0.14715,-0.14837 -0.15985,0.15986 -0.0115,0.27891 0.0511,0.43518 0.13897,0.34726 0.0879,-0.0879 0.0973,-0.31612 0.0209,-0.50712 z m 0.8776,0.0184 c 0,-0.14552 -0.11906,-0.19099 -0.26459,-0.10106 -0.14552,0.0899 -0.26458,0.28259 -0.26458,0.42811 0,0.14552 0.11906,0.191 0.26458,0.10106 0.14553,-0.0899 0.26459,-0.28259 0.26459,-0.42811 z m 6.8614,-2.36099 c -0.173047,-0.10695 -0.232007,-0.32815 -0.131017,-0.49155 0.1011,-0.16359 -0.19941,-0.68012 -0.668677,-1.1494 -0.801447,-0.80146 -0.864514,-0.82101 -1.057154,-0.3278 -0.11268,0.28847 -0.21324,0.37567 -0.22346,0.19377 -0.0111,-0.1982 -0.363177,-0.32117 -0.878494,-0.30687 l -0.859884,0.0239 0.841714,0.24358 c 1.050184,0.3039 2.792985,2.26889 2.587245,2.9171 -0.0808,0.25447 0.008,0.71213 0.19646,1.01701 0.314967,0.50857 0.350097,0.45199 0.425607,-0.68547 0.0502,-0.75555 -0.0406,-1.31573 -0.23234,-1.43423 z m -1.702038,-1.31196 c -0.0899,-0.14552 -0.0374,-0.26459 0.116677,-0.26459 0.15411,0 0.2802,0.11907 0.2802,0.26459 0,0.14552 -0.0525,0.26458 -0.11668,0.26458 -0.0642,0 -0.190257,-0.11906 -0.280197,-0.26458 z m -31.695152,2.3182 c -0.0633,-0.32912 -0.11747,-0.12215 -0.1204,0.45993 -0.003,0.5821 0.0488,0.85137 0.11506,0.59841 0.0662,-0.25297 0.0686,-0.72923 0.005,-1.05834 z m 26.68813,-0.003 c -0.0749,-0.47294 -0.19854,-1.38491 -0.2747,-2.02661 -0.0762,-0.64168 -0.21308,-1.237 -0.30427,-1.32292 -0.17994,-0.16955 0.091,2.9901 0.32132,3.74641 0.23574,0.77431 0.40249,0.51746 0.25765,-0.39688 z m -27.2292,-0.52917 c -0.0734,-0.1819 -0.13345,-0.0331 -0.13345,0.33073 0,0.36381 0.06,0.51263 0.13345,0.33073 0.0734,-0.1819 0.0734,-0.47955 0,-0.66146 z m 28.73706,-1.33451 c -0.18302,-0.32505 0.50436,-1.02499 1.382404,-1.40767 0.436617,-0.19029 0.602107,-0.35064 0.367757,-0.35633 -0.23436,-0.006 -0.849751,0.27714 -1.367551,0.62853 -0.51779,0.35139 -1.01065,0.56967 -1.09525,0.48507 -0.0846,-0.0846 -0.15381,-0.0829 -0.15381,0.004 0,0.0866 0.1871,0.34459 0.41577,0.57326 0.22868,0.22868 0.28821,0.41579 0.13229,0.41579 -0.15591,0 -0.27811,0.32742 -0.27155,0.7276 l 0.0119,0.72761 0.34812,-0.79375 c 0.19147,-0.43657 0.29492,-0.88828 0.22988,-1.00379 z m -22.97289,-0.0347 c -0.11012,-0.58698 -0.39959,-1.07528 -0.74466,-1.25616 -0.53872,-0.2824 -0.54422,-0.273 -0.12036,0.20561 0.24429,0.27583 0.45052,0.59135 0.45828,0.70114 0.008,0.1098 0.0901,0.5023 0.18292,0.87223 0.25198,1.00396 0.43155,0.58449 0.22382,-0.52282 z m -4.94794,0.75111 c -0.0853,-0.0853 0.22221,-0.49217 0.68333,-0.90418 0.46111,-0.41201 0.74719,-0.84031 0.63573,-0.95177 -0.11147,-0.11147 -0.34356,-0.0618 -0.51576,0.11042 -0.402,0.40201 -0.82606,0.4076 -0.57886,0.008 0.1179,-0.19077 0.0725,-0.23358 -0.121,-0.11401 -0.17038,0.1053 -0.23805,0.30751 -0.15039,0.44935 0.0877,0.14184 0.0198,0.42605 -0.15075,0.63158 -0.28955,0.34888 -0.16988,0.92605 0.192,0.92605 0.0884,0 0.091,-0.0698 0.006,-0.15507 z m 6.83775,-1.09976 c -0.18349,-0.18349 -0.68545,0.18932 -0.68545,0.50909 0,0.17545 0.15181,0.15537 0.40326,-0.0533 0.2218,-0.18408 0.34879,-0.38917 0.28219,-0.45577 z m 18.55127,-0.928 c -0.0631,-0.32742 -0.11466,-0.0595 -0.11466,0.59532 0,0.65485 0.0516,0.92274 0.11466,0.59532 0.0631,-0.32743 0.0631,-0.86321 0,-1.19064 z m -22.87475,-0.10908 c -0.1819,-0.0734 -0.47955,-0.0734 -0.66145,0 -0.18191,0.0734 -0.0331,0.13346 0.33073,0.13346 0.3638,0 0.51263,-0.06 0.33072,-0.13346 z m 0.1323,-0.53632 c -0.25467,-0.0666 -0.67138,-0.0666 -0.92605,0 -0.25466,0.0666 -0.0463,0.121 0.46303,0.121 0.50932,0 0.71768,-0.0545 0.46302,-0.121 z m 9.19427,32.72632 c 0.72736,-0.31257 1.14511,-0.31257 0.66146,0 -0.21829,0.14107 -0.57547,0.24994 -0.79375,0.24194 -0.26169,-0.01 -0.21663,-0.092 0.13229,-0.24194 z m 9.92187,-19.44698 c 0,-0.36381 0.10255,-0.66147 0.2279,-0.66147 0.12534,0 0.17099,0.29766 0.10144,0.66147 -0.0695,0.3638 -0.17209,0.66145 -0.22789,0.66145 -0.0558,0 -0.10145,-0.29765 -0.10145,-0.66145 z m -14.37882,-13.72723 c 0.57819,-0.3347 11.90318,-0.58392 12.98966,-0.28584 l 0.7277,0.19964 -0.92604,0.21857 c -1.43834,0.3395 -13.39274,0.21578 -12.79132,-0.13237 z m 8.62777,-0.0851 c -0.32542,-0.0628 -0.92073,-0.0644 -1.32291,-0.004 -0.40219,0.0608 -0.13593,0.1122 0.59167,0.11419 0.7276,0.002 1.05666,-0.0478 0.73124,-0.11057 z"
       id="path6722"
       inkscape:connector-curvature="0" />
    <rect
       style="fill:#002b11;fill-opacity:1;stroke-width:0.26458332;filter:url(#filter7161)"
       id="rect7043"
       width="116.26225"
       height="50.781212"
       x="32.606884"
       y="112.31676"
       rx="1.069078"
       ry="9.6217051"
       transform="matrix(0.53073403,0,0,0.34293853,3.5233099,235.65391)" />
    <text
       xml:space="preserve"
       style="font-style:normal;font-weight:normal;font-size:10.58333302px;line-height:1.25;font-family:sans-serif;letter-spacing:0px;word-spacing:0px;fill:#000000;fill-opacity:1;stroke:none;stroke-width:0.26458332;filter:url(#filter7217)"
       x="69.741234"
       y="119.27113"
       id="text7165"
       transform="matrix(0.83544892,0,0,0.85952144,-21.173807,182.66614)"><tspan
         sodipodi:role="line"
         id="tspan7163"
         x="69.741234"
         y="119.27113"
         style="stroke-width:0.26458332">EVENT</tspan></text>
  </g>
</svg>
