<?xml version="1.0" encoding="UTF-8" standalone="no"?>
<!-- Created with Inkscape (http://www.inkscape.org/) -->

<svg
   xmlns:dc="http://purl.org/dc/elements/1.1/"
   xmlns:cc="http://creativecommons.org/ns#"
   xmlns:rdf="http://www.w3.org/1999/02/22-rdf-syntax-ns#"
   xmlns:svg="http://www.w3.org/2000/svg"
   xmlns="http://www.w3.org/2000/svg"
   xmlns:xlink="http://www.w3.org/1999/xlink"
   xmlns:sodipodi="http://sodipodi.sourceforge.net/DTD/sodipodi-0.dtd"
   xmlns:inkscape="http://www.inkscape.org/namespaces/inkscape"
   width="49"
   height="57"
   viewBox="0 0 12.964583 15.08125"
   version="1.1"
   id="svg8"
   inkscape:version="0.92.3 (2405546, 2018-03-11)"
   sodipodi:docname="WORKSHOP_FINAL.svg">
  <defs
     id="defs2">
    <linearGradient
       inkscape:collect="always"
       id="linearGradient2045">
      <stop
         style="stop-color:#e6e6e6;stop-opacity:1;"
         offset="0"
         id="stop2041" />
      <stop
         style="stop-color:#e6e6e6;stop-opacity:0;"
         offset="1"
         id="stop2043" />
    </linearGradient>
    <linearGradient
       inkscape:collect="always"
       xlink:href="#linearGradient2045"
       id="linearGradient2047"
       x1="74.133888"
       y1="125.01206"
       x2="74.133888"
       y2="126.7159"
       gradientUnits="userSpaceOnUse"
       gradientTransform="matrix(0.42105291,0,0,0.42105291,-25.06697,242.88301)" />
  </defs>
  <sodipodi:namedview
     id="base"
     pagecolor="#ffffff"
     bordercolor="#666666"
     borderopacity="1.0"
     inkscape:pageopacity="0.0"
     inkscape:pageshadow="2"
     inkscape:zoom="7.9195959"
     inkscape:cx="68.63077"
     inkscape:cy="27.908374"
     inkscape:document-units="px"
     inkscape:current-layer="layer1"
     showgrid="false"
     inkscape:window-width="1366"
     inkscape:window-height="745"
     inkscape:window-x="-8"
     inkscape:window-y="-8"
     inkscape:window-maximized="1"
     showborder="false"
     units="px" />
  <metadata
     id="metadata5">
    <rdf:RDF>
      <cc:Work
         rdf:about="">
        <dc:format>image/svg+xml</dc:format>
        <dc:type
           rdf:resource="http://purl.org/dc/dcmitype/StillImage" />
        <dc:title />
      </cc:Work>
    </rdf:RDF>
  </metadata>
  <g
     inkscape:label="Layer 1"
     inkscape:groupmode="layer"
     id="layer1"
     transform="translate(0,-281.91873)">
    <path
       style="opacity:1;fill:#000000;fill-opacity:1;stroke-width:0.11140357"
       d="m -20.0362,282.1151 c -0.604847,0 -1.091845,0.487 -1.091845,1.09186 v 10.70735 c 0,0.60485 0.486998,1.09185 1.091845,1.09185 h 10.7073853 c 0.6048487,0 1.0918454,-0.487 1.0918454,-1.09185 v -10.70735 c 0,-0.60486 -0.4869967,-1.09186 -1.0918454,-1.09186 z m -0.0046,0.29969 h 10.6939523 c 0.4322447,0 0.7802567,0.348 0.7802567,0.78025 v 10.69388 c 0,0.43225 -0.348012,0.78025 -0.7802567,0.78025 H -20.040746 c -0.432246,0 -0.780262,-0.348 -0.780262,-0.78025 v -10.69388 c 0,-0.43225 0.348016,-0.78025 0.780262,-0.78025 z"
       id="rect12"
       inkscape:connector-curvature="0" />
    <path
       style="opacity:0.38;fill:#000000;fill-opacity:1;stroke-width:0.03436521"
       d="m 2.1698566,295.43845 c -0.4797697,0 -0.8660593,0.0584 -0.8660593,0.13085 v 1.28449 c 0,0.0727 0.3862896,0.13085 0.8660593,0.13085 h 8.4932164 c 0.47977,0 0.866066,-0.0584 0.866066,-0.13085 v -1.28449 c 0,-0.0727 -0.386296,-0.13085 -0.866066,-0.13085 z m -0.00357,0.036 h 8.4825154 c 0.342866,0 0.618911,0.0419 0.618911,0.0935 v 1.28287 c 0,0.0519 -0.276048,0.0935 -0.618911,0.0935 H 2.1662655 c -0.3428624,0 -0.6189111,-0.0419 -0.6189111,-0.0935 v -1.28287 c 0,-0.052 0.2760484,-0.0935 0.6189111,-0.0935 z"
       id="rect12-9"
       inkscape:connector-curvature="0" />
    <rect
       style="opacity:0.38000039;fill:#e6e6e6;fill-opacity:1;stroke-width:0.1576042"
       id="rect32"
       width="12.305833"
       height="12.235499"
       x="0.31645259"
       y="282.42401"
       rx="0.7393977"
       ry="1.090397" />
    <rect
       style="opacity:0.6;fill:url(#linearGradient2047);fill-opacity:1;stroke-width:0.14645708"
       id="rect2039"
       width="9.7412319"
       height="1.4273336"
       x="1.5409904"
       y="295.49344"
       rx="0.29810709"
       ry="0.17670295" />
    <text
       xml:space="preserve"
       style="font-style:normal;font-weight:normal;font-size:1.33977437px;line-height:1.25;font-family:sans-serif;letter-spacing:0px;word-spacing:0px;fill:#f2f2f2;fill-opacity:1;stroke:none;stroke-width:0.25120771;"
       x="2.2766178"
       y="282.53323"
       id="text2088"
       transform="scale(0.95221799,1.0501797)"><tspan
         sodipodi:role="line"
         id="tspan2086"
         x="2.2766178"
         y="282.53323"
         style="stroke-width:0.25120771;fill:#f2f2f2;">WORKSHOPS</tspan></text>
    <path
       style="opacity:0.88999999;fill:#b3b3b3;stroke-width:0.02751336"
       d="m 21.583821,320.50693 v -0.66036 H 20.345906 19.10764 v -1.26118 c 0,-1.16496 0.0036,-1.2774 0.05289,-1.47322 0.151609,-0.59354 0.529577,-1.04925 1.087714,-1.31196 0.749588,-0.35286 1.6388,-0.20062 2.237836,0.38262 l 0.137506,0.13258 0.155136,-0.092 c 0.404765,-0.23835 0.782731,-0.33812 1.279871,-0.33812 0.500667,0 0.884631,0.10228 1.280579,0.34059 l 0.158662,0.0951 0.06699,-0.0811 c 0.105775,-0.12515 0.365628,-0.31557 0.57471,-0.42021 0.253861,-0.1266 0.465412,-0.18087 0.781329,-0.20062 0.891335,-0.0554 1.681822,0.47447 1.999499,1.3402 l 0.07405,0.20521 v 1.34125 1.34126 h -1.239331 -1.239336 v 0.66035 0.66031 h -2.476188 -2.476181 z m 2.035453,-5.11409 c -0.51759,-0.16536 -0.904724,-0.55955 -1.055981,-1.07453 -0.05994,-0.19745 -0.05994,-0.63161 0,-0.82917 0.151609,-0.5221 0.560252,-0.9288 1.082425,-1.08225 0.239756,-0.0708 0.648045,-0.0592 0.900141,0.0247 0.480925,0.16147 0.824337,0.50495 0.985819,0.98581 0.09872,0.29264 0.09872,0.67869 0,0.97126 -0.162187,0.48085 -0.504894,0.82441 -0.985819,0.98582 -0.260911,0.0871 -0.684362,0.0951 -0.926585,0.0176 z m -2.860142,-0.15761 c -0.193919,-0.0518 -0.363865,-0.15267 -0.53945,-0.31838 -0.264436,-0.24892 -0.384667,-0.57058 -0.362454,-0.96146 0.03526,-0.39524 0.215075,-0.73495 0.533103,-0.94688 0.41781,-0.27714 0.978768,-0.27714 1.396577,0 0.528167,0.35046 0.694233,1.06743 0.381493,1.64517 -0.08109,0.15232 -0.296169,0.36408 -0.474222,0.46777 -0.257385,0.15021 -0.630064,0.19569 -0.935047,0.11392 z m 5.945239,5.7e-4 c -0.345533,-0.0934 -0.626543,-0.32791 -0.793315,-0.66529 -0.08815,-0.17841 -0.102246,-0.23517 -0.112819,-0.45145 -0.03526,-0.5531 0.218601,-0.97411 0.710457,-1.21453 0.172767,-0.0843 0.190395,-0.0878 0.522884,-0.0878 0.331431,0 0.352585,0.003 0.522533,0.0878 0.492203,0.24116 0.740421,0.66697 0.709041,1.21637 0,0.1992 -0.03526,0.28136 -0.09872,0.42828 -0.102246,0.21543 -0.334952,0.47066 -0.522525,0.57358 -0.278542,0.1509 -0.636064,0.19392 -0.937173,0.11286 z"
       id="path30"
       inkscape:connector-curvature="0" />
    <path
       style="fill:#f2f2f2;stroke-width:0.016472"
       d="m 2.1735322,291.96701 c -0.1145618,-0.04 -0.23465,-0.12771 -0.3659578,-0.26736 -0.1536819,-0.16344 -0.2159781,-0.28382 -0.2244474,-0.43371 -0.011142,-0.19725 -0.022293,-0.18357 0.907116,-1.11233 l 0.8283815,-0.8278 0.089027,0.13597 c 0.1533293,0.23419 0.6638522,0.71204 0.8280324,0.77503 0.012999,0.005 -0.3086627,0.33878 -0.8102796,0.84081 -0.7038475,0.70444 -0.8457749,0.839 -0.9224314,0.87451 -0.1055732,0.0489 -0.217382,0.054 -0.3294402,0.0149 z m 5.1084464,-0.40918 c -0.3129323,-0.12559 -0.3809836,-0.16742 -0.3809836,-0.23422 0,-0.0215 0.029653,-0.10881 0.065891,-0.19395 0.036238,-0.0851 0.065891,-0.15844 0.065891,-0.16288 0,-0.0123 -0.2639973,-0.27363 -0.2764456,-0.27363 -0.00602,0 -0.090829,0.0338 -0.1885255,0.075 -0.2191367,0.0925 -0.2408109,0.0874 -0.3207018,-0.075 -0.06645,-0.13509 -0.066759,-0.14825 -0.00344,-0.14825 0.1647321,0 0.606166,-0.1248 0.858856,-0.24281 l 0.1603268,-0.0749 0.1219443,0.11582 c 0.3994354,0.37944 0.9954866,0.37072 1.3858792,-0.0203 0.1339163,-0.13411 0.2094826,-0.26612 0.2556354,-0.44657 0.081401,-0.31829 -0.00533,-0.65833 -0.229764,-0.90081 -0.049143,-0.0531 -0.1212162,-0.11846 -0.1601678,-0.14526 l -0.070817,-0.0488 0.031381,-0.0796 c 0.086896,-0.22046 0.1591876,-0.56776 0.1760867,-0.84596 0.00593,-0.0974 0.0152,-0.17703 0.020634,-0.17699 0.00542,5e-5 0.087708,0.03 0.1828332,0.0665 0.1720459,0.066 0.2478737,0.12063 0.2463098,0.1773 -4.23e-4,0.0153 -0.032223,0.10546 -0.070671,0.20024 l -0.069906,0.17233 0.1390817,0.13753 0.1390825,0.13752 0.1745532,-0.0753 c 0.096004,-0.0414 0.1871112,-0.0752 0.2024602,-0.0751 0.015346,8e-5 0.046065,0.0169 0.068246,0.0372 0.050923,0.0468 0.3074067,0.62883 0.3074067,0.69762 0,0.0681 -0.03062,0.0922 -0.2234191,0.17629 -0.1497649,0.0653 -0.1635853,0.0751 -0.1626438,0.11553 5.459e-4,0.0242 0.00241,0.11275 0.00413,0.19656 l 0.0031,0.1524 0.1657785,0.0647 c 0.1698874,0.0662 0.2295494,0.11323 0.2295494,0.18095 0,0.0538 -0.2451951,0.65523 -0.2843246,0.6974 -0.048343,0.0521 -0.1020671,0.047 -0.2901,-0.028 l -0.1632871,-0.0651 -0.1394135,0.13755 -0.1394135,0.13754 0.071367,0.16224 c 0.077282,0.17568 0.08834,0.2497 0.043331,0.29001 -0.034398,0.0308 -0.6665579,0.30873 -0.7022347,0.30873 -0.050329,0 -0.1093525,-0.0782 -0.1785903,-0.23678 l -0.071041,-0.16265 -0.1891213,0.003 c -0.1040179,0.002 -0.1940898,0.008 -0.2001596,0.0144 -0.0061,0.006 -0.038628,0.0807 -0.072356,0.16536 -0.068857,0.17284 -0.1057218,0.2172 -0.1791491,0.2156 -0.027735,-5e-4 -0.1866006,-0.0557 -0.3530333,-0.12254 z m -1.6246189,-1.32029 c -0.3128721,-0.0375 -0.6108843,-0.12376 -0.8792164,-0.25444 l -0.1709206,-0.0832 -0.060758,0.0593 -0.06075,0.0593 -0.1508963,-0.0951 c -0.3016696,-0.19008 -0.510768,-0.39758 -0.6936579,-0.68835 l -0.088976,-0.14147 0.060019,-0.0615 0.060019,-0.0615 -0.065117,-0.12963 c -0.3625369,-0.72165 -0.3591435,-1.59161 0.00896,-2.29789 0.3575392,-0.686 0.9915455,-1.17348 1.7381154,-1.33643 0.1962237,-0.0428 0.5204444,-0.0695 0.6902611,-0.0568 0.8461747,0.0631 1.5253803,0.45753 1.994596,1.15823 0.2513797,0.37539 0.3640285,0.7071 0.4113643,1.21132 0.05272,0.56153 -0.1237559,1.18669 -0.4744291,1.6807 -0.1300045,0.18314 -0.4102716,0.45959 -0.5890632,0.58104 -0.3703227,0.25154 -0.7912852,0.4062 -1.2247906,0.45 -0.1617978,0.0163 -0.3968656,0.0193 -0.5047695,0.006 z m 0.6775789,-0.81058 c 0.2941838,-0.0739 0.5721382,-0.22718 0.7934347,-0.43735 0.1654783,-0.15715 0.2690921,-0.29881 0.374446,-0.51194 0.4125517,-0.8346 0.1078781,-1.84211 -0.6996829,-2.31375 -0.4096578,-0.23926 -0.9000042,-0.30377 -1.3771123,-0.18119 -0.1889022,0.0486 -0.5002542,0.20645 -0.6581522,0.33381 -0.5811372,0.46874 -0.8085911,1.23601 -0.5747372,1.93875 0.1002195,0.30117 0.2395918,0.51592 0.4835691,0.7451 0.2365336,0.22218 0.5205776,0.37079 0.8406431,0.43982 0.2080839,0.0449 0.612517,0.0383 0.8175917,-0.0132 z m -0.3399032,-0.26465 c 0,-0.01 0.056597,-0.15889 0.1257608,-0.33177 0.1155461,-0.28882 0.1301583,-0.31644 0.179922,-0.34017 0.05247,-0.025 0.059855,-0.0237 0.2366111,0.0423 l 0.182448,0.0681 0.1391229,-0.13912 0.1391221,-0.13912 -0.072958,-0.16128 c -0.079741,-0.17626 -0.088423,-0.23097 -0.044655,-0.28148 0.02489,-0.0287 0.4451093,-0.21746 0.4841804,-0.21746 0.023015,0 0.016069,0.18953 -0.011916,0.32499 -0.128965,0.62437 -0.6298734,1.08679 -1.2793921,1.18109 -0.051215,0.008 -0.078245,0.005 -0.078245,-0.006 z m -0.2767293,-0.69617 c -0.010876,-0.0108 -0.019783,-0.0609 -0.0198,-0.11119 l -3.35e-5,-0.0914 -0.08965,-0.0352 -0.089649,-0.0352 -0.059228,0.0641 c -0.032576,0.0353 -0.0719,0.0638 -0.087392,0.0635 -0.015493,-2.5e-4 -0.08661,-0.0556 -0.1580459,-0.12303 l -0.1298833,-0.12258 0.029068,-0.0458 c 0.015983,-0.0252 0.047045,-0.0652 0.069012,-0.0888 l 0.039944,-0.043 -0.037124,-0.0764 c -0.037012,-0.0762 -0.037365,-0.0764 -0.1218816,-0.0764 -0.1237232,0 -0.1392829,-0.0237 -0.1392829,-0.2124 0,-0.20111 0.00882,-0.21587 0.1290872,-0.21587 h 0.094983 l 0.036952,-0.0865 0.036952,-0.0865 -0.06663,-0.0581 c -0.036642,-0.032 -0.06663,-0.0729 -0.06663,-0.091 0,-0.0387 0.2272209,-0.27093 0.2650926,-0.27093 0.014014,0 0.054602,0.0248 0.090209,0.055 l 0.064739,0.055 0.086478,-0.0382 0.086477,-0.0382 v -0.0876 c 0,-0.0482 0.00889,-0.0965 0.019766,-0.10739 0.027022,-0.027 0.3452474,-0.027 0.3722666,0 0.010876,0.0108 0.019765,0.0592 0.019765,0.10739 v 0.0876 l 0.086478,0.0388 0.086477,0.0388 0.06651,-0.0638 c 0.036582,-0.0351 0.079991,-0.0638 0.096469,-0.0638 0.035069,0 0.2735267,0.22556 0.2735267,0.25874 0,0.0124 -0.028509,0.0531 -0.063346,0.0905 l -0.063346,0.0679 0.033668,0.0797 0.033668,0.0797 h 0.080171 c 0.1390387,0 0.1438954,0.007 0.1438954,0.21414 0,0.2069 -0.0049,0.21414 -0.1439109,0.21414 h -0.080188 l -0.030065,0.0837 -0.030065,0.0836 0.059761,0.0612 c 0.032868,0.0336 0.059761,0.0756 0.059761,0.0931 0,0.0372 -0.2264609,0.27148 -0.2624455,0.27148 -0.013438,0 -0.051963,-0.0269 -0.085622,-0.0598 l -0.061197,-0.0598 -0.083627,0.0301 -0.083627,0.0301 v 0.0836 c 0,0.0491 -0.010609,0.0988 -0.025646,0.1203 -0.02366,0.0338 -0.03868,0.0366 -0.1943693,0.0366 -0.10927,0 -0.175693,-0.007 -0.1884946,-0.0198 z m 0.3634431,-0.53687 c 0.2030965,-0.0898 0.3139381,-0.32456 0.2527166,-0.53516 -0.072709,-0.2501 -0.3275797,-0.39015 -0.5776861,-0.31744 -0.07417,0.0216 -0.1147088,0.0469 -0.1814267,0.11367 -0.1074345,0.10744 -0.1486867,0.21652 -0.1357673,0.359 0.028432,0.31356 0.3551774,0.50688 0.6421635,0.37993 z m 3.8830378,-0.30983 c -0.022646,-0.003 -0.1136264,-0.01 -0.2021723,-0.0156 -0.210112,-0.0138 -0.2144313,-0.0181 -0.207053,-0.20788 l 0.00567,-0.14558 -0.1266491,-0.0599 -0.1266489,-0.0598 -0.1012813,0.0846 c -0.1522495,0.12722 -0.1617264,0.1244 -0.3617725,-0.10783 -0.091185,-0.10584 -0.1704133,-0.21086 -0.1760619,-0.23337 -0.010592,-0.0422 0.00817,-0.0646 0.1577098,-0.18861 l 0.055686,-0.0462 -0.038843,-0.11856 c -0.021365,-0.0652 -0.049753,-0.12784 -0.063088,-0.13916 -0.013335,-0.0113 -0.058961,-0.0206 -0.101393,-0.0206 -0.1166088,0 -0.1799651,-0.0174 -0.2043904,-0.0558 -0.030186,-0.0476 -8.598e-4,-0.50975 0.036006,-0.56813 0.024021,-0.038 0.029352,-0.0389 0.1753637,-0.0287 l 0.1505928,0.0105 0.060225,-0.12773 0.060225,-0.12774 -0.089918,-0.10532 c -0.067284,-0.0788 -0.088663,-0.11611 -0.084934,-0.14815 0.0037,-0.0315 0.057242,-0.0876 0.2019565,-0.2118 0.2444682,-0.20974 0.2526839,-0.2111 0.3744375,-0.0616 0.05652,0.0694 0.096217,0.1045 0.1121811,0.0992 0.013584,-0.004 0.073938,-0.0248 0.1341134,-0.0449 l 0.109405,-0.0366 0.010016,-0.0731 c 0.0055,-0.0402 0.010016,-0.0939 0.010016,-0.11942 0,-0.0626 0.031484,-0.12757 0.067292,-0.13893 0.016146,-0.005 0.1390748,-8.6e-4 0.2731826,0.009 0.309992,0.0231 0.307314,0.0212 0.299455,0.21796 l -0.0058,0.14419 0.126609,0.0599 0.126609,0.0599 0.103998,-0.0928 c 0.14974,-0.13358 0.155379,-0.13203 0.352426,0.0968 0.224133,0.2603 0.22225,0.25175 0.08315,0.37721 l -0.112716,0.10166 0.04127,0.13104 0.04127,0.13104 0.134652,0.0124 c 0.154943,0.0143 0.193777,0.0304 0.207778,0.0862 0.0055,0.022 0.0029,0.14794 -0.0058,0.27988 -0.02051,0.31096 -0.02159,0.31241 -0.219299,0.29677 l -0.141826,-0.0113 -0.06047,0.12732 -0.06047,0.12733 0.04555,0.0573 c 0.120681,0.15181 0.139248,0.18252 0.129288,0.2139 -0.01587,0.05 -0.401156,0.36674 -0.446131,0.36674 -0.02631,0 -0.0684,-0.0335 -0.134451,-0.10717 l -0.09615,-0.10718 -0.131775,0.0463 -0.131777,0.0463 -0.01157,0.13907 c -0.01573,0.18892 -0.0444,0.21089 -0.2437405,0.18679 z m 0.133574,-0.81402 c 0.224956,-0.0426 0.418704,-0.19009 0.513889,-0.39103 0.04966,-0.10483 0.0526,-0.1216 0.0526,-0.30045 0,-0.17929 -0.0028,-0.19545 -0.05317,-0.30169 -0.213169,-0.45006 -0.8154015,-0.54444 -1.1585918,-0.18157 -0.3216724,0.34013 -0.226791,0.89675 0.1876711,1.10099 0.172003,0.0848 0.2950092,0.10458 0.4576047,0.0738 z"
       id="path2107"
       inkscape:connector-curvature="0" />
  </g>
</svg>
